<?xml version="1.0" encoding="UTF-8"?>
<svg id="Layer_1" xmlns="http://www.w3.org/2000/svg" viewBox="0 0 962.27 977.58">
  <defs>
    <style>
      .cls-1 {
        fill: #fff;
      }
    </style>
  </defs>
  <g id="Black">
    <path class="cls-1" d="M858.64,977.58h-44.41c-.42-3.93-.19-7.88-.15-11.82.02-2.19-.79-2.91-2.9-2.83-3.2.12-6.41-.03-9.62.04-1.67.04-2.38-.57-2.34-2.29.08-3.21-.1-6.42.05-9.62.11-2.32-.81-3.04-3.04-2.94-3.2.14-6.41-.01-9.62.04-1.57.03-2.22-.58-2.19-2.17.06-3.04.01-6.09,0-9.13q0-3.5-3.38-3.51c-3.04,0-6.09-.07-9.13.01-1.7.04-2.35-.62-2.31-2.32.08-3.04.02-6.08.01-9.13,0-3.32-.05-3.36-3.27-3.37-3.12-.01-6.25-.05-9.37,0-1.59.03-2.2-.63-2.17-2.2.06-3.29-.07-6.58.03-9.87.06-1.99-.61-2.85-2.69-2.77-3.04.12-6.09-.11-9.12.07-2.41.14-3.09-.77-3.06-3.11.12-7.98,0-15.95.07-23.93.01-1.89-.63-2.69-2.58-2.64-3.2.1-6.42-.07-9.62.05-2.08.08-2.73-.74-2.66-2.74.11-3.2-.03-6.41.05-9.62.04-1.79-.64-2.54-2.46-2.5-3.12.08-6.26-.12-9.37.06-2.44.14-3.15-.82-3.03-3.13.16-3.12,0-6.25.05-9.37.03-1.68-.65-2.36-2.34-2.35-8.14.04-16.28.05-24.42,0-1.79-.01-2.54.64-2.49,2.46.08,2.96.03,5.92.02,8.88-.01,3.47-.02,3.48-3.58,3.48-12.66,0-25.33.04-37.99-.03-2.14-.01-2.97.69-2.87,2.85.13,2.62.03,5.26.03,7.89q0,4.08-3.96,4.09c-7.65,0-15.3.05-22.94-.03-2.04-.02-2.81.7-2.73,2.74.11,2.87.03,5.76.02,8.63-.01,3.44-.02,3.45-3.35,3.46-5.35.01-10.69,0-16.04,0-17.19,0-34.37.04-51.56-.04-2.39-.01-3.26.75-3.1,3.13.17,2.46.04,4.93.04,7.4q0,4.32-4.23,4.32c-46.63,0-93.26,0-139.88,0-.58,0-1.16-.05-1.73,0-1.87.18-2.71-.52-2.61-2.51.12-2.46.02-4.93.02-7.4,0-5.33.4-4.9-4.95-4.9-17.11,0-34.21-.03-51.31.04-2.2,0-3.12-.6-2.99-2.92.17-2.87.04-5.75.04-8.63,0-3.23-.06-3.28-3.35-3.29-12.75,0-25.49-.04-38.24.03-2.12.01-2.96-.6-2.85-2.8.15-3.04-.08-6.09.07-9.12.12-2.32-.81-2.98-3.03-2.95-7.98.1-15.95-.01-23.93.07-2.01.02-2.8-.63-2.71-2.68.12-3.04-.1-6.09.07-9.12.14-2.45-.85-3.1-3.17-3.07-7.98.11-15.95,0-23.93.07-1.92.02-2.66-.63-2.58-2.57.11-2.71.03-5.43.02-8.14q0-4.12-4-4.12c-7.65,0-15.3-.06-22.94.03-2.04.02-2.78-.68-2.69-2.71.12-2.96.03-5.92.03-8.88-.01-3.16-.08-3.23-3.14-3.25-3.12-.01-6.25-.07-9.37.01-1.72.04-2.33-.65-2.3-2.33.07-3.21-.08-6.42.04-9.62.08-2.11-.63-2.99-2.82-2.9-3.2.13-6.41-.04-9.62.05-1.84.05-2.46-.69-2.41-2.47.08-3.29-.04-6.58.04-9.87.04-1.78-.62-2.55-2.45-2.5-3.21.08-6.42-.1-9.62.05-2.22.11-2.87-.77-2.78-2.87.13-3.12-.04-6.25.06-9.37.06-1.91-.66-2.68-2.59-2.62-3.04.1-6.1-.13-9.12.07-2.58.17-3.29-.85-3.15-3.27.17-3.03-.02-6.08.06-9.13.05-1.8-.67-2.53-2.47-2.48-2.96.08-5.92.03-8.88.02q-3.44-.01-3.46-3.35c-.01-3.04-.05-6.09.01-9.13.03-1.69-.68-2.37-2.36-2.34-3.21.06-6.42-.09-9.62.05-2.1.09-2.98-.56-2.88-2.78.15-3.2-.02-6.41.05-9.62.04-1.82-.72-2.49-2.5-2.45-3.29.07-6.58-.05-9.87.04-1.77.05-2.53-.57-2.48-2.41.09-3.29-.05-6.58.04-9.87.06-1.95-.75-2.63-2.64-2.57-3.04.09-6.09-.1-9.13.06-2.35.13-3.15-.66-3.11-3.06.13-7.81.05-15.62.04-23.44,0-3.07-.09-3.14-3.24-3.15-2.88,0-5.76-.12-8.63.03-2.24.12-3-.67-2.97-2.94.11-7.73.04-15.46.04-23.19q0-3.5-3.38-3.51c-2.8,0-5.6-.13-8.39.04-2.38.15-3.13-.71-3.09-3.08.13-7.73.05-15.46.04-23.19,0-3.32-.05-3.37-3.26-3.38-2.88,0-5.76-.12-8.63.03-2.28.12-2.98-.73-2.95-2.96.11-7.89-.02-15.79.08-23.68.03-2.22-.62-3.16-2.94-3.03-2.79.15-5.59.04-8.39.03-3.5,0-3.51-.01-3.51-3.55,0-17.52-.04-35.03.04-52.55.01-2.33-.65-3.22-3.08-3.17-3.85.09-7.72.28-11.58-.14v-177.65c3.77-.42,7.55-.11,11.33-.18,3.22-.06,3.28-.07,3.28-3.37,0-17.59.04-35.19-.04-52.78-.01-2.32.63-3.16,3.05-3.12,7.89.13,15.79-.02,23.68.09,2.29.03,3.07-.77,2.96-3.02-.15-3.04-.08-6.08-.02-9.12.03-1.69-.68-2.36-2.36-2.34-3.29.06-6.58-.06-9.87.04-1.86.05-2.69-.53-2.62-2.52.12-3.37.1-6.74,0-10.11-.06-1.89.57-2.67,2.54-2.6,3.12.12,6.25-.09,9.37.06,2.31.11,2.97-.8,2.95-3.02-.09-10.69-.04-21.38-.04-32.07,0-2.47.02-4.93.01-7.4,0-1.12.3-1.95,1.64-1.93,4.43.07,8.87-.31,13.29.22.54,4,.16,8.02.22,12.03.02,1.72.54,2.59,2.4,2.55,3.28-.08,6.56-.05,9.84-.01,1.56.02,2.24-.65,2.21-2.21-.04-2.95,0-5.9,0-8.86,0-3.3-.06-3.3-3.26-3.37-3.76-.09-7.54.3-11.29-.23-.53-4.41-.14-8.84-.22-13.26-.03-1.52.98-1.67,2.14-1.67,3.2,0,6.41-.13,9.6.03,2.43.13,3.11-.81,3.08-3.15-.11-7.87.03-15.75-.09-23.63-.03-2.3.79-2.98,2.99-2.91,4.43.13,8.86-.02,13.29.05,4.5.07,9.01-.32,13.51.23.4,4.9.41,9.79,0,14.69-4,.54-8.02.16-12.03.22-1.72.02-2.59.54-2.55,2.4.08,3.28.05,6.56.01,9.84-.02,1.56.65,2.24,2.21,2.21,2.95-.04,5.9,0,8.86,0,3.3,0,3.3-.06,3.37-3.26.09-3.76-.3-7.54.23-11.29,4.9-.41,9.8-.41,14.7,0,.54,4,.16,8.02.22,12.03.02,1.72.54,2.59,2.4,2.55,3.28-.08,6.56-.05,9.84-.01,1.56.02,2.24-.65,2.21-2.21-.04-2.95,0-5.9,0-8.86,0-3.3-.06-3.3-3.26-3.37-3.76-.09-7.54.3-11.29-.23-.41-4.9-.41-9.79,0-14.69,4-.56,8.02-.16,12.03-.22,1.72-.03,2.59-.53,2.55-2.4-.08-3.28-.05-6.56-.01-9.84.02-1.56-.65-2.23-2.21-2.21-3.03.04-6.08.13-9.1-.03-2.33-.12-3.21.63-3.17,3.06.07,3.84.34,7.7-.2,11.53-4.9.4-9.79.4-14.69,0-.53-3.51-.17-7.05-.23-10.57-.07-3.99-.02-3.99-3.89-3.99-2.88,0-5.75-.06-8.62.01-1.69.05-2.35-.6-2.32-2.3.08-3.53.07-7.06,0-10.6-.04-1.69.61-2.35,2.31-2.31,3.2.08,6.41-.1,9.61.05,2.33.11,3.03-.82,2.94-3.04-.14-3.2-.02-6.41-.03-9.61,0-1.15.12-2.19,1.65-2.16,4.43.07,8.86-.31,13.28.22.54,3.92.2,7.87.21,11.8,0,1.98.6,2.86,2.69,2.78,3.04-.12,6.08-.12,9.12,0,2.09.08,2.69-.8,2.69-2.78,0-3.93-.33-7.88.21-11.8,4.9-.41,9.8-.41,14.69,0,.54,4,.16,8.02.22,12.03.02,1.72.54,2.59,2.4,2.55,3.28-.08,6.56-.05,9.84-.01,1.56.02,2.24-.65,2.21-2.21-.04-2.95,0-5.9,0-8.86,0-3.3-.06-3.3-3.26-3.37-3.76-.09-7.54.3-11.29-.23-.41-4.9-.41-9.79,0-14.69,3.9-.54,7.83-.22,11.74-.21,2.13,0,2.87-.72,2.86-2.85-.02-3.91-.33-7.84.21-11.74,4.9-.41,9.79-.41,14.69,0,.54,3.9.22,7.83.21,11.74,0,2.13.73,2.86,2.86,2.85,3.91-.02,7.84-.34,11.74.21.41,4.9.41,9.79,0,14.69-4,.54-8.02.16-12.03.22-1.72.02-2.59.54-2.55,2.4.08,3.28.05,6.56.01,9.84-.02,1.56.65,2.24,2.21,2.21,2.95-.04,5.9,0,8.86,0,3.3,0,3.3-.06,3.37-3.26.09-3.76-.3-7.54.23-11.29,4.9-.41,9.8-.41,14.7,0,.54,4,.16,8.02.22,12.03.02,1.72.54,2.59,2.4,2.55,3.28-.08,6.56-.05,9.84-.01,1.56.02,2.24-.65,2.21-2.21-.04-2.95,0-5.9,0-8.86,0-3.3-.06-3.3-3.26-3.37-3.76-.09-7.54.3-11.29-.23-.41-4.9-.41-9.79,0-14.69,3.9-.54,7.83-.22,11.74-.21,2.13,0,2.87-.72,2.86-2.85-.02-3.91-.33-7.84.21-11.74,4.9-.41,9.79-.41,14.69,0,.54,3.92.2,7.87.21,11.8,0,1.98.6,2.86,2.69,2.78,3.04-.12,6.08-.12,9.12,0,2.09.08,2.69-.8,2.69-2.78,0-3.93-.33-7.88.21-11.8,3.9-.54,7.83-.22,11.74-.21,2.13,0,2.87-.72,2.86-2.85-.02-3.91-.33-7.84.21-11.74,4.9-.41,9.79-.41,14.69,0,.54,3.92.2,7.87.21,11.8,0,1.98.6,2.86,2.69,2.78,3.04-.12,6.08-.12,9.12,0,2.09.08,2.69-.8,2.69-2.78,0-3.93-.33-7.88.21-11.8,3.9-.54,7.83-.22,11.74-.21,2.13,0,2.87-.72,2.86-2.85-.02-3.91-.33-7.84.21-11.74,3.84-.54,7.71-.24,11.56-.2,2.22.02,3.14-.63,3.03-2.95-.15-3.2.03-6.41-.05-9.62-.04-1.72.66-2.33,2.33-2.29,3.53.07,7.07.08,10.6,0,1.73-.04,2.31.69,2.28,2.35-.07,3.37.03,6.74-.03,10.11-.03,1.66.62,2.4,2.32,2.37,3.2-.06,6.41-.09,9.62.01,2,.06,2.56-.85,2.52-2.69-.08-3.29.04-6.58-.04-9.86-.04-1.72.67-2.32,2.34-2.29,3.53.07,7.07.08,10.6,0,1.74-.04,2.3.7,2.27,2.35-.07,3.37.03,6.74-.03,10.11-.03,1.67.63,2.4,2.33,2.37,3.2-.06,6.41-.07,9.62,0,1.77.04,2.56-.61,2.51-2.44-.08-2.79-.02-5.59-.02-8.38q0-3.99,4.05-4c51.63,0,103.25,0,154.88,0,.66,0,1.32.05,1.97,0,1.67-.13,2.38.55,2.34,2.28-.08,3.29.05,6.58-.04,9.86-.05,1.84.52,2.75,2.52,2.69,3.2-.1,6.41-.07,9.62-.01,1.7.03,2.35-.71,2.32-2.37-.06-3.37.04-6.74-.03-10.11-.03-1.66.54-2.39,2.28-2.35,3.53.08,7.07.07,10.6,0,1.68-.03,2.37.58,2.33,2.29-.08,3.2.1,6.42-.05,9.62-.11,2.32.81,2.98,3.03,2.96,3.85-.04,7.72-.34,11.56.2.54,3.92.2,7.87.21,11.8,0,1.98.6,2.86,2.69,2.78,3.04-.12,6.08-.12,9.12,0,2.09.08,2.69-.8,2.69-2.78,0-3.93-.33-7.88.21-11.8,4.9-.41,9.79-.41,14.69,0,.54,3.9.22,7.83.21,11.74,0,2.13.73,2.86,2.86,2.85,3.91-.02,7.84-.34,11.74.21.54,3.9.22,7.83.21,11.74,0,2.13.73,2.86,2.86,2.85,3.91-.02,7.84-.34,11.74.21.54,3.92.2,7.87.21,11.8,0,1.98.6,2.86,2.69,2.78,3.04-.12,6.08-.12,9.12,0,2.09.08,2.69-.8,2.69-2.78,0-3.93-.33-7.88.21-11.8,4.9-.41,9.79-.41,14.69,0,.54,3.92.2,7.87.21,11.8,0,1.98.6,2.86,2.69,2.78,3.04-.12,6.08-.12,9.12,0,2.09.08,2.69-.8,2.69-2.78,0-3.93-.33-7.88.21-11.8,4.9-.41,9.79-.41,14.69,0,.54,3.9.22,7.83.21,11.74,0,2.13.73,2.86,2.86,2.85,3.91-.02,7.84-.34,11.74.21.41,4.9.41,9.79,0,14.69-4,.54-8.02.16-12.03.22-1.72.02-2.59.54-2.55,2.4.08,3.28.05,6.56.01,9.84-.02,1.56.65,2.24,2.21,2.21,2.95-.04,5.9,0,8.86,0,3.3,0,3.3-.06,3.37-3.26.09-3.76-.3-7.54.23-11.29,4.9-.41,9.8-.41,14.7,0,.54,4,.16,8.02.22,12.03.02,1.72.54,2.59,2.4,2.55,3.28-.08,6.56-.05,9.84-.01,1.56.02,2.24-.65,2.21-2.21-.04-2.95,0-5.9,0-8.86,0-3.3-.06-3.3-3.26-3.37-3.76-.09-7.54.3-11.29-.23-.41-4.9-.41-9.79,0-14.69,3.9-.54,7.83-.22,11.74-.21,2.13,0,2.87-.72,2.86-2.85-.02-3.91-.33-7.84.21-11.74,4.41-.53,8.83-.14,13.24-.22,1.51-.03,1.69.96,1.68,2.12,0,3.36.07,6.72-.01,10.08-.05,1.91.69,2.65,2.6,2.6,3.36-.09,6.72,0,10.08-.01,1.17,0,2.15.18,2.12,1.69-.08,4.41.31,8.84-.22,13.24-4,.54-8.02.16-12.03.22-1.72.02-2.59.54-2.55,2.4.08,3.28.05,6.56.01,9.84-.02,1.56.65,2.24,2.21,2.21,2.95-.04,5.9,0,8.86,0,3.3,0,3.3-.06,3.37-3.26.09-3.76-.3-7.54.23-11.29,4.41-.53,8.84-.14,13.26-.22,1.52-.03,1.67.98,1.67,2.14,0,3.2.13,6.41-.03,9.6-.13,2.42.81,3.11,3.14,3.08,7.87-.11,15.75.03,23.63-.09,2.3-.03,2.98.78,2.91,2.99-.13,4.26.02,8.53-.05,12.8-.08,4.67.32,9.34-.24,14-4.9.41-9.79.4-14.69,0-.55-4-.16-8.02-.22-12.03-.03-1.72-.53-2.59-2.4-2.55-3.28.08-6.56.05-9.84.01-1.56-.02-2.24.65-2.21,2.21.04,3.03.13,6.08-.03,9.1-.12,2.33.63,3.21,3.06,3.17,3.84-.07,7.7-.34,11.53.2.4,4.9.41,9.79,0,14.69-4,.54-8.02.16-12.03.22-1.72.02-2.59.54-2.55,2.4.08,3.28.05,6.56.01,9.84-.02,1.56.65,2.24,2.21,2.21,2.95-.04,5.9,0,8.86,0,3.3,0,3.3-.06,3.37-3.26.09-3.76-.3-7.54.23-11.29,4.9-.41,9.8-.41,14.69,0,.54,3.92.2,7.87.21,11.8,0,1.98.6,2.86,2.69,2.78,3.04-.12,6.08-.12,9.12,0,2.09.08,2.69-.8,2.69-2.78,0-3.93-.33-7.88.21-11.8,3.84-.54,7.69-.17,11.54-.23,3.38-.06,3.39,0,3.4,3.39,0,12.72.04,25.43-.03,38.15-.01,2.1.64,2.98,2.82,2.89,3.28-.13,6.56-.02,9.84-.02,1.16,0,2.17.15,2.14,1.67-.08,4.42.31,8.85-.22,13.26-4,.54-8.02.16-12.03.22-1.72.02-2.59.54-2.55,2.4.08,3.28.05,6.56.01,9.84-.02,1.56.65,2.24,2.21,2.21,2.95-.04,5.9,0,8.86,0,3.3,0,3.3-.06,3.37-3.26.09-3.76-.3-7.54.23-11.29,4.01-.55,8.05-.02,12.06-.28,2.31-.15,2.95.78,2.92,2.98-.1,7.98,0,15.95-.07,23.93-.02,2.01.65,2.83,2.71,2.76,3.12-.11,6.25.05,9.37-.05,1.94-.07,2.81.49,2.78,2.61-.09,8.3-.08,16.61,0,24.92.02,2-.79,2.56-2.63,2.51-3.29-.09-6.58.02-9.87-.03-1.69-.03-2.38.67-2.34,2.35.06,3.04.13,6.09-.02,9.13-.11,2.27.7,3.03,2.98,3,7.48-.11,14.97-.04,22.45-.04q4.21,0,4.21,4.33c0,71.29,0,142.59,0,213.88,0,.66-.06,1.32,0,1.97.15,1.74-.69,2.31-2.34,2.27-2.88-.07-5.76-.01-8.63-.01q-3.82,0-3.83,3.8c0,17.27,0,34.54,0,51.81,0,3.6-.01,3.6-3.7,3.61-2.71,0-5.43.12-8.14-.03-2.26-.12-3.04.69-3,2.98.11,7.73.05,15.46.04,23.19,0,3.46-.01,3.47-3.58,3.48-2.71,0-5.44.13-8.14-.04-2.39-.15-3.16.72-3.12,3.11.12,7.48.05,14.97.04,22.45q0,4.08-3.96,4.09c-2.63,0-5.27.12-7.89-.03-2.28-.13-3.02.73-2.99,2.99.11,7.81-.04,15.62.09,23.43.04,2.41-.58,3.43-3.16,3.26-3.11-.2-6.25,0-9.37-.06-1.7-.03-2.36.69-2.33,2.36.06,3.21-.09,6.42.05,9.62.09,2.1-.57,2.98-2.78,2.87-3.2-.15-6.41.02-9.62-.05-1.83-.04-2.49.72-2.45,2.5.08,3.21.06,6.41,0,9.62-.03,1.7.69,2.36,2.36,2.33,3.21-.06,6.42.09,9.62-.05,2.11-.09,2.98.57,2.87,2.79-.15,3.2.02,6.41-.05,9.62-.04,1.83.72,2.49,2.5,2.45,3.12-.07,6.25.09,9.37-.05,2.21-.1,3.02.62,2.99,2.92-.12,7.89.04,15.79-.09,23.68-.04,2.42.81,3.12,3.15,3.08,7.97-.11,15.95,0,23.93-.07,1.89-.02,2.67.58,2.6,2.55-.12,3.12.09,6.25-.06,9.37-.11,2.32.81,3.04,3.03,2.95,3.2-.14,6.41.01,9.62-.04,1.57-.03,2.23.58,2.2,2.17-.06,3.12-.01,6.25,0,9.37.01,3.22.06,3.26,3.37,3.27,3.04,0,6.09.06,9.13-.01,1.69-.04,2.37.61,2.32,2.31-.08,2.71-.01,5.43-.01,8.14q0,4.37,4.25,4.37c2.8,0,5.59.05,8.39,0,1.59-.03,2.2.62,2.18,2.19-.06,3.21.1,6.42-.04,9.62-.1,2.22.61,3.15,2.94,3.04,3.2-.15,6.41.03,9.62-.05,1.72-.04,2.33.65,2.3,2.33-.07,3.21.08,6.42-.04,9.62-.08,2.11.63,2.93,2.82,2.91,3.94-.04,7.89-.28,11.82.15v29.61c-4,.42-8.02.15-12.03.16-1.9,0-2.66.68-2.6,2.6.09,3.36.01,6.72.01,10.08,0,1.17-.17,2.15-1.68,2.13-4.42-.08-8.84.31-13.25-.22-.54-4-.16-8.02-.22-12.03-.02-1.72-.54-2.59-2.4-2.55-3.28.08-6.56.05-9.84.01-1.56-.02-2.24.65-2.21,2.21.04,2.95,0,5.9,0,8.86,0,3.3.06,3.3,3.26,3.37,3.76.09,7.54-.3,11.29.23.53,4.42.15,8.85.22,13.28.02,1.53-1.01,1.66-2.16,1.65-3.04,0-6.08,0-9.12.01q-3.48,0-3.5,3.38c0,3.04-.06,6.08.01,9.12.04,1.69-.6,2.36-2.3,2.32-3.2-.08-6.41.1-9.61-.05-2.32-.11-3.04.81-2.94,3.03.14,3.11-.03,6.24.05,9.36.05,1.78-.57,2.52-2.41,2.47-3.28-.09-6.57.05-9.85-.04-1.94-.05-2.64.73-2.58,2.63.09,3.04-.1,6.08.06,9.11.12,2.31-.59,3.27-3.03,3.13-3.11-.18-6.24.02-9.36-.06-1.8-.04-2.52.67-2.47,2.47.08,3.12-.12,6.25.06,9.36.14,2.44-.82,3.15-3.13,3.03-3.03-.16-6.08.03-9.11-.06-1.9-.06-2.63.64-2.63,2.58,0,4.02.26,8.04-.16,12.06ZM710.55,666.76c.54,4,.16,8.02.22,12.03.02,1.72.54,2.59,2.4,2.55,3.28-.08,6.56-.05,9.84-.01,1.56.02,2.24-.65,2.21-2.21-.04-2.95,0-5.9,0-8.86,0-3.3-.06-3.3-3.26-3.37-3.76-.09-7.54.3-11.29-.23-.41-4.9-.41-9.79,0-14.69,4-.55,8.02-.16,12.03-.22,1.72-.03,2.59-.53,2.55-2.4-.08-3.28-.05-6.56-.01-9.84.02-1.56-.65-2.24-2.21-2.21-3.03.04-6.08.13-9.1-.03-2.33-.12-3.21.63-3.17,3.06.07,3.84.34,7.7-.2,11.53-4.9.41-9.79.4-14.69,0-.55-4-.16-8.02-.22-12.03-.03-1.72-.53-2.59-2.4-2.55-3.28.08-6.56.05-9.84.01-1.56-.02-2.24.65-2.21,2.21.04,3.03.13,6.08-.03,9.1-.12,2.33.63,3.21,3.06,3.17,3.84-.07,7.7-.34,11.53.2.4,4.9.41,9.79,0,14.69-4,.54-8.02.16-12.03.22-1.72.02-2.59.54-2.55,2.4.08,3.28.05,6.56.01,9.84-.02,1.56.65,2.24,2.21,2.21,2.95-.04,5.9,0,8.86,0,3.3,0,3.3-.06,3.37-3.26.09-3.76-.3-7.54.23-11.29,4.9-.41,9.8-.41,14.7,0ZM651.33,637.15c.54,4,.16,8.02.22,12.03.02,1.72.54,2.59,2.4,2.55,3.28-.08,6.56-.05,9.84-.01,1.56.02,2.24-.65,2.21-2.21-.04-2.95,0-5.9,0-8.86,0-3.3-.06-3.3-3.26-3.37-3.76-.09-7.54.3-11.29-.23-.41-4.9-.41-9.79,0-14.69,3.9-.54,7.83-.22,11.74-.21,2.13,0,2.87-.72,2.86-2.85-.02-3.91-.33-7.84.21-11.74,4.9-.41,9.8-.41,14.69,0,.54,4,.16,8.02.22,12.03.02,1.72.54,2.59,2.4,2.55,3.28-.08,6.56-.05,9.84-.01,1.56.02,2.24-.65,2.21-2.21-.04-2.95,0-5.9,0-8.86,0-3.3-.06-3.3-3.26-3.37-3.76-.09-7.54.3-11.29-.23-.41-4.9-.41-9.79,0-14.69,3.99-.56,8-.19,12.01-.22,1.93-.01,2.62-.74,2.57-2.63-.09-3.35,0-6.71-.01-10.07,0-1.18.19-2.14,1.7-2.11,4.41.08,8.83-.31,13.23.22.54,3.9.22,7.83.21,11.74,0,2.13.73,2.86,2.86,2.85,3.91-.02,7.84-.34,11.74.21.41,4.9.41,9.79,0,14.69-4,.54-8.02.16-12.03.22-1.72.02-2.59.54-2.55,2.4.08,3.28.05,6.56.01,9.84-.02,1.56.65,2.24,2.21,2.21,2.95-.04,5.9,0,8.86,0,3.3,0,3.3-.06,3.37-3.26.09-3.76-.3-7.54.23-11.29,4.9-.41,9.8-.41,14.69,0,.54,3.9.22,7.83.21,11.74,0,2.13.72,2.86,2.86,2.86,3.91-.02,7.84-.33,11.74.21.53,4.42.15,8.86.22,13.29.02,1.54-1.03,1.64-2.17,1.64-3.37,0-6.74.06-10.11,0-1.77-.04-2.55.61-2.51,2.45.08,3.2.08,6.41,0,9.62-.05,1.87.82,2.4,2.55,2.4,12.99-.04,25.97-.04,38.96,0,1.73,0,2.6-.53,2.55-2.4-.08-3.2-.08-6.41,0-9.62.05-1.83-.73-2.48-2.51-2.44-3.37.07-6.74,0-10.11,0-1.14,0-2.2-.1-2.17-1.64.07-4.43-.31-8.86.22-13.29,3.9-.54,7.83-.22,11.74-.21,2.13,0,2.86-.72,2.86-2.86-.02-3.91-.33-7.84.21-11.74,3.9-.54,7.83-.22,11.74-.21,2.13,0,2.87-.72,2.86-2.85-.02-3.91-.33-7.84.21-11.74,3.92-.54,7.87-.2,11.8-.21,1.97,0,2.86-.6,2.78-2.69-.12-3.04-.12-6.08,0-9.12.08-2.09-.8-2.69-2.78-2.69-3.93,0-7.88.33-11.8-.21-.41-4.9-.41-9.79,0-14.69,3.9-.54,7.83-.22,11.74-.21,2.13,0,2.87-.72,2.86-2.85-.02-3.91-.33-7.84.21-11.74,3.92-.54,7.87-.2,11.8-.21,1.97,0,2.86-.6,2.78-2.69-.12-3.04-.12-6.08,0-9.12.08-2.09-.8-2.69-2.78-2.69-3.93,0-7.88.33-11.8-.21-.54-3.92-.2-7.87-.21-11.8,0-1.98-.6-2.86-2.69-2.78-3.04.12-6.08.12-9.12,0-2.09-.08-2.68.81-2.69,2.78,0,3.93.33,7.88-.21,11.8-4.9.41-9.79.41-14.69,0-.54-3.92-.2-7.87-.21-11.8,0-1.98-.6-2.86-2.69-2.78-3.04.12-6.08.12-9.12,0-2.09-.08-2.68.81-2.69,2.78,0,3.93.33,7.88-.21,11.8-4.9.41-9.79.41-14.69,0-.54-3.92-.2-7.87-.21-11.8,0-1.97-.6-2.86-2.69-2.78-3.04.12-6.08.12-9.12,0-2.09-.08-2.69.8-2.69,2.78,0,3.93.33,7.88-.21,11.8-4.09.55-8.2.05-12.3.27-2.07.11-2.69-.72-2.67-2.72.08-8.14.1-16.27-.01-24.41-.03-2.3.78-2.95,2.99-2.92,7.97.1,15.94,0,23.92.07,1.99.02,2.85-.61,2.77-2.69-.12-3.04-.12-6.08,0-9.12.08-2.1-.83-2.73-2.8-2.67-3.28.1-6.57-.02-9.86.03-1.58.03-2.21-.6-2.18-2.18.06-3.62.06-7.23,0-10.85-.03-1.59.63-2.2,2.19-2.17,3.29.06,6.58-.07,9.86.03,1.98.06,2.86-.59,2.78-2.68-.12-3.04-.12-6.08,0-9.12.08-2.09-.81-2.74-2.79-2.68-3.28.1-6.57-.02-9.86.03-1.57.03-2.22-.59-2.19-2.17.06-3.62.06-7.23,0-10.85-.03-1.58.61-2.2,2.19-2.18,3.37.06,6.74-.04,10.11.02,1.75.04,2.58-.56,2.53-2.42-.08-3.2-.08-6.41,0-9.61.05-1.84-.76-2.46-2.52-2.43-3.37.07-6.74-.03-10.11.03-1.56.03-2.22-.57-2.2-2.16.06-3.62.06-7.23,0-10.85-.03-1.57.6-2.21,2.18-2.19,3.37.06,6.74-.04,10.11.02,1.74.03,2.59-.54,2.54-2.41-.08-3.2-.08-6.41,0-9.61.05-1.84-.75-2.47-2.51-2.44-3.37.07-6.74,0-10.11,0-1.15,0-2.19-.11-2.17-1.65.07-4.43-.31-8.86.22-13.28,4-.54,8.02-.16,12.03-.22,1.72-.02,2.59-.54,2.55-2.4-.08-3.28-.05-6.56-.01-9.84.02-1.56-.65-2.24-2.21-2.21-2.95.04-5.9,0-8.86,0-3.3,0-3.3.06-3.37,3.26-.09,3.76.3,7.54-.23,11.29-3.84.54-7.71.17-11.56.23-3.36.06-3.38,0-3.38-3.42,0-12.58,0-25.15,0-37.73,0-3.16-.08-3.24-3.14-3.25-3.12-.01-6.25-.07-9.37.01-1.7.04-2.34-.63-2.31-2.32.07-3.53.08-7.07,0-10.6-.04-1.72.66-2.33,2.33-2.29,3.2.07,6.41-.08,9.61.04,2.1.08,3.01-.61,2.9-2.81-.14-2.87-.17-5.76,0-8.63.15-2.47-.87-3.09-3.18-3.05-7.81.11-15.62-.04-23.42.09-2.36.04-3.13-.69-3.09-3.07.13-7.81.05-15.62.04-23.42,0-3.07-.08-3.14-3.23-3.15-3.04-.01-6.08-.07-9.12.02-1.79.05-2.52-.59-2.46-2.42.09-3.2-.08-6.41.05-9.61.09-2.2-.79-2.9-2.9-2.82-3.2.12-6.41-.03-9.61.04-1.67.04-2.38-.57-2.34-2.29.08-3.29-.07-6.58.04-9.86.07-2.07-.77-2.76-2.77-2.7-3.28.1-6.57.02-9.86.02-1.15,0-2.19-.11-2.17-1.65.07-4.43-.31-8.86.22-13.29,4-.54,8.02-.16,12.03-.22,1.72-.02,2.59-.54,2.55-2.4-.08-3.28-.05-6.56-.01-9.84.02-1.56-.65-2.24-2.21-2.21-2.95.04-5.9,0-8.86,0-3.3,0-3.3.06-3.37,3.26-.09,3.76.3,7.54-.23,11.29-4.42.53-8.85.15-13.27.22-1.53.03-1.66-1-1.66-2.15,0-3.04,0-6.08-.01-9.11q0-3.5-3.62-3.5c-2.96,0-5.91-.06-8.87.01-1.67.04-2.37-.57-2.33-2.29.08-3.12.02-6.24.01-9.36-.01-3.09-.08-3.16-3.22-3.16-7.72,0-15.44,0-23.15,0-3.21,0-3.22-.02-3.23-3.32,0-1.64.02-3.28,0-4.93-.1-7.59,1.05-6.48-6.48-6.54-6.9-.05-13.79-.01-20.69-.02-1.17,0-2.42.07-2.4-1.66.07-4.42-.31-8.86.21-13.27,4-.54,8.02-.16,12.03-.22,1.72-.02,2.59-.54,2.55-2.4-.08-3.28-.05-6.56-.01-9.84.02-1.56-.65-2.24-2.21-2.21-2.95.04-5.9,0-8.86,0-3.3,0-3.3.06-3.37,3.26-.09,3.76.3,7.54-.23,11.29-9.36.55-18.73.13-28.09.22-1.33.01-1.64-.8-1.64-1.93,0-2.96,0-5.92-.01-8.88q0-3.96-3.91-3.96c-46.62,0-93.25,0-139.87,0-.41,0-.83.04-1.23,0-2.09-.23-2.74.8-2.67,2.77.1,3.04-.09,6.09.06,9.12.11,2.26-.71,2.99-2.96,2.95-7.81-.11-15.62-.05-23.43-.04-3.16,0-3.24.09-3.25,3.14-.01,2.88-.14,5.76.04,8.63.14,2.39-.73,3.11-3.09,3.08-7.81-.12-15.62.02-23.43-.09-2.32-.03-3.31.62-3.16,3.07.17,2.95-.08,5.92.08,8.88.12,2.29-.74,2.97-2.97,2.94-7.89-.1-15.79.02-23.68-.08-2.22-.03-3.14.63-3.03,2.95.15,3.2-.03,6.41.05,9.62.04,1.72-.66,2.33-2.34,2.29-3.29-.07-6.58.05-9.87-.04-1.89-.05-2.7.62-2.64,2.57.09,3.29-.05,6.58.04,9.87.05,1.84-.7,2.45-2.48,2.41-3.29-.08-6.58.04-9.87-.04-1.78-.04-2.54.63-2.5,2.45.08,3.2-.1,6.42.05,9.62.11,2.22-.77,2.87-2.87,2.78-3.12-.13-6.25.04-9.37-.06-1.91-.06-2.68.66-2.62,2.59.1,3.04-.13,6.09.07,9.12.17,2.58-.85,3.29-3.26,3.15-3.03-.17-6.08.02-9.12-.06-1.8-.05-2.53.66-2.48,2.47.08,2.71.02,5.43.02,8.14q0,4.2-4.09,4.21c-7.65,0-15.29.04-22.94-.02-1.92-.02-2.66.69-2.6,2.61.1,3.12.08,6.25,0,9.37-.04,1.8.66,2.52,2.47,2.48,3.37-.07,6.74.02,10.11-.03,1.52-.02,2.27.48,2.25,2.12-.06,3.62-.07,7.24,0,10.85.04,1.77-.78,2.26-2.39,2.23-3.21-.06-6.42.08-9.62-.04-2.18-.09-2.86.76-2.84,2.88.09,7.89-.04,15.79.08,23.68.03,2.32-.63,3.16-3.05,3.12-7.89-.13-15.79.02-23.68-.09-2.3-.03-3.07.77-2.96,3.02.15,3.04.08,6.08.02,9.13-.03,1.7.69,2.36,2.36,2.33,3.37-.06,6.74.04,10.11-.03,1.65-.03,2.36.53,2.35,2.27-.04,13.4-.04,26.81,0,40.21,0,1.66-.56,2.39-2.28,2.34-3.04-.08-6.08-.02-9.13-.01-3.39,0-3.4.01-3.4,3.48,0,25.24,0,50.49,0,75.73,0,7.07.06,14.14-.04,21.21-.03,2.16.73,2.93,2.87,2.85,3.2-.12,6.41.02,9.62-.04,1.65-.03,2.4.52,2.36,2.27-.08,3.53-.07,7.07,0,10.61.03,1.67-.56,2.38-2.29,2.34-3.29-.08-6.58.07-9.87-.04-2.08-.07-2.7.79-2.7,2.77,0,3.94.33,7.88-.21,11.81-4.9.41-9.79.41-14.69,0-.54-3.92-.2-7.87-.21-11.8,0-1.98-.6-2.86-2.69-2.78-3.04.12-6.08.12-9.12,0-2.09-.08-2.68.81-2.69,2.78,0,3.93.33,7.88-.21,11.8-4.9.41-9.79.41-14.69,0-.54-3.92-.2-7.87-.21-11.8,0-1.98-.6-2.86-2.69-2.78-3.04.12-6.08.12-9.12,0-2.09-.08-2.68.81-2.69,2.78,0,3.93.33,7.88-.21,11.8-4.9.41-9.79.41-14.69,0-.56-4-.16-8.02-.22-12.03-.03-1.72-.53-2.59-2.4-2.55-3.28.08-6.56.05-9.84.01-1.56-.02-2.23.65-2.21,2.21.04,3.03.13,6.08-.03,9.1-.12,2.33.63,3.21,3.06,3.17,3.84-.07,7.7-.34,11.53.2.53,3.9.22,7.83.2,11.74-.01,2.13.73,2.86,2.86,2.85,3.91-.02,7.84-.34,11.74.21.54,3.9.22,7.83.21,11.74,0,2.13.73,2.86,2.86,2.85,3.91-.02,7.84-.34,11.74.21.41,4.9.41,9.79,0,14.69-3.92.54-7.87.2-11.8.21-1.98,0-2.86.6-2.78,2.69.12,3.04.12,6.08,0,9.12-.08,2.09.81,2.68,2.78,2.69,3.93,0,7.88-.33,11.8.21.54,3.9.22,7.83.21,11.74,0,2.13.73,2.86,2.86,2.85,3.91-.02,7.84-.34,11.74.21.41,4.9.41,9.79,0,14.69-3.92.54-7.87.2-11.8.21-1.98,0-2.86.6-2.78,2.69.12,3.04.12,6.08,0,9.12-.08,2.09.8,2.69,2.78,2.69,3.93,0,7.88-.33,11.8.21.54,3.76.15,7.54.24,11.31.08,3.15.1,3.23,3.15,3.25,3.12.01,6.24.07,9.36-.01,1.69-.04,2.35.61,2.31,2.31-.08,3.12-.02,6.24-.01,9.36.01,3.06.09,3.08,3.24,3.15,3.77.09,7.55-.3,11.31.24.54,3.84.24,7.71.2,11.56-.02,2.21.63,3.15,2.95,3.03,2.95-.15,5.92.1,8.87-.08,2.39-.14,3.11.73,3.07,3.09-.12,7.56-.05,15.12-.04,22.68q0,3.87,3.99,3.88c6.33,0,12.66-.03,18.98.02,2.13.01,4.27-.27,6.38.23.08,1.06.23,2.11.24,3.17.02,7.79.07,15.58-.02,23.37-.02,2.14.72,2.89,2.86,2.85,5.57-.11,11.15-.08,16.73-.02,3.27.04,6.55-.31,9.81.23.54,3.9.22,7.83.21,11.74,0,2.13.72,2.87,2.86,2.86,3.91-.02,7.84-.33,11.74.21.54,3.76.15,7.54.24,11.32.08,3.15.09,3.23,3.17,3.24,7.89.01,15.79.07,23.68-.03,2.18-.03,2.91.71,2.81,2.85-.14,2.95.09,5.92-.07,8.88-.13,2.34.64,3.2,3.07,3.16,8.71-.12,17.43-.04,26.14-.04.14.14.28.29.42.43,0,3.54,0,7.07,0,10.61q0,3.76,3.86,3.76c17.43,0,34.86.04,52.29-.04,2.33-.01,3.25.64,3.11,3.05-.18,3.11,0,6.25-.05,9.37-.03,1.61.5,2.44,2.26,2.44,8.22-.04,16.44-.04,24.66,0,1.7,0,2.36-.69,2.33-2.36-.06-3.29.06-6.58-.04-9.86-.05-1.87.54-2.69,2.52-2.62,3.37.12,6.74.1,10.11,0,1.89-.06,2.67.57,2.6,2.54-.12,3.28.01,6.58-.04,9.86-.03,1.61.51,2.44,2.26,2.43,13.15-.03,26.31-.03,39.46,0,1.69,0,2.36-.68,2.34-2.36-.06-3.37.04-6.74-.03-10.11-.03-1.64.52-2.4,2.26-2.36,3.53.08,7.07.09,10.6,0,1.91-.05,2.39.82,2.35,2.53-.07,3.29.02,6.58-.03,9.86-.03,1.61.5,2.44,2.25,2.44,13.15-.03,26.31-.03,39.46,0,1.69,0,2.38-.67,2.34-2.35-.06-2.79-.02-5.59-.01-8.39q0-4.07,3.97-4.08c17.43,0,34.86-.03,52.29.04,2.26,0,3.11-.7,2.99-2.98-.15-2.87-.04-5.75-.03-8.63.01-3.21.02-3.22,3.34-3.23,7.81,0,15.62-.06,23.43.03,2.14.02,2.9-.69,2.87-2.85-.09-7.81-.1-15.62,0-23.43.03-2.23-.66-3.05-2.96-3.02-7.97.11-15.95-.03-23.92.08-2.19.03-2.83-.74-2.8-2.86.1-7.89-.04-15.79.08-23.68.03-2.34-.65-3.19-3.08-3.16-8.71.12-17.43.04-26.14.04-.14-.14-.28-.29-.42-.43,0-8.71-.08-17.43.04-26.14.03-2.43-.82-3.19-3.16-3.07-3.12.16-6.25-.02-9.37.05-1.68.04-2.37-.57-2.33-2.29.08-3.2-.1-6.42.05-9.62.11-2.32-.81-3.04-3.03-2.94-3.2.14-6.41-.01-9.62.04-1.56.03-2.23-.57-2.2-2.17.06-3.2-.12-6.42.05-9.62.13-2.44-.83-3.19-3.16-3.07-2.95.16-5.92-.07-8.87.07-2.14.1-2.87-.64-2.85-2.81.1-7.89.04-15.78.03-23.68,0-3.07-.08-3.15-3.24-3.15-7.89,0-15.78-.05-23.68.03-2,.02-2.8-.61-2.72-2.67.12-3.12-.07-6.25.06-9.37.09-2.2-.79-2.9-2.9-2.82-3.2.12-6.41-.03-9.62.04-1.67.04-2.38-.57-2.33-2.29.08-3.29-.07-6.58.04-9.86.07-2.08-.78-2.76-2.77-2.69-3.2.1-6.41-.04-9.62.05-1.79.05-2.51-.59-2.46-2.42.09-3.2-.08-6.42.05-9.62.09-2.2-.8-2.89-2.91-2.82-3.2.12-6.41-.03-9.62.04-1.68.04-2.37-.58-2.33-2.3.08-3.2-.1-6.42.05-9.62.11-2.32-.81-3.05-3.04-2.94-2.95.14-5.92-.08-8.87.07-2.24.11-3-.66-2.97-2.94.11-7.89-.04-15.78.09-23.67.04-2.43-.83-3.11-3.16-3.07-7.81.11-15.62-.03-23.43.09-2.34.04-3.15-.66-3.11-3.06.13-7.89-.02-15.78.09-23.67.03-2.3-.79-3.05-3.02-2.96-3.2.14-6.41.03-9.62.03-1.14,0-2.19-.11-2.17-1.64.07-4.43-.31-8.87.22-13.29,4-.54,8.02-.16,12.03-.22,1.72-.02,2.59-.54,2.55-2.4-.08-3.28-.05-6.56-.01-9.84.02-1.56-.65-2.24-2.21-2.21-2.95.04-5.9,0-8.86,0-3.3,0-3.3.06-3.37,3.26-.09,3.76.3,7.54-.23,11.29-4.41.53-8.83.14-13.25.22-1.51.03-1.69-.95-1.69-2.12,0-3.36-.07-6.72.01-10.08.05-1.91-.69-2.65-2.6-2.6-3.36.09-6.72.01-10.08.01-1.17,0-2.15-.18-2.12-1.69.08-4.41-.31-8.84.22-13.25,4-.54,8.02-.16,12.03-.22,1.72-.02,2.59-.54,2.55-2.4-.08-3.28-.05-6.56-.01-9.84.02-1.56-.65-2.24-2.21-2.21-2.95.04-5.9,0-8.86,0-3.3,0-3.3.06-3.37,3.26-.09,3.76.3,7.54-.23,11.29-4.41.53-8.83.14-13.24.22-1.51.03-1.69-.95-1.69-2.12,0-3.36-.07-6.72.01-10.08.05-1.91-.68-2.65-2.6-2.6-3.36.09-6.72.01-10.08.01-1.17,0-2.15-.18-2.12-1.68.08-4.41-.31-8.84.22-13.24,3.9-.54,7.83-.22,11.74-.21,2.13,0,2.87-.72,2.86-2.86-.02-3.91-.33-7.84.21-11.74,4.9-.41,9.8-.41,14.69,0,.54,4,.16,8.02.22,12.03.02,1.72.54,2.59,2.4,2.55,3.28-.08,6.56-.05,9.84-.01,1.56.02,2.24-.65,2.21-2.21-.04-2.95,0-5.9,0-8.86,0-3.3-.06-3.3-3.26-3.37-3.76-.09-7.54.3-11.29-.23-.41-4.9-.41-9.79,0-14.69,4-.56,8.02-.16,12.03-.22,1.72-.03,2.59-.53,2.55-2.4-.08-3.28-.05-6.56-.01-9.84.02-1.56-.65-2.23-2.21-2.21-3.03.04-6.08.13-9.1-.03-2.33-.12-3.21.63-3.17,3.06.07,3.84.34,7.7-.2,11.53-4.9.4-9.79.41-14.69,0-.08-.4-.22-.8-.22-1.2-.02-8.55.04-17.1-.08-25.66-.03-2.31.79-2.95,2.99-2.92,7.98.1,15.95,0,23.93.07,2.01.02,2.83-.65,2.76-2.71-.11-3.2.03-6.41-.05-9.62-.04-1.72.46-2.58,2.36-2.52,3.53.1,7.07.09,10.61,0,1.76-.04,2.28.75,2.25,2.38-.07,3.04-.02,6.08,0,9.13,0,3.25.07,3.31,3.33,3.31,12.75,0,25.49.04,38.24-.03,2.08-.01,2.99.54,2.88,2.77-.16,3.28-.11,6.58-.01,9.87.06,1.88-.56,2.68-2.54,2.61-3.2-.12-6.42.06-9.62-.06-2.07-.07-2.78.76-2.7,2.77.11,2.79.02,5.59.03,8.39,0,3.24.06,3.29,3.34,3.3,12.66,0,25.33.05,37.99-.04,2.32-.02,3.16.62,3.13,3.04-.13,7.89.02,15.79-.09,23.68-.03,2.3.78,2.99,3.02,2.96,7.98-.1,15.95.01,23.93-.07,1.99-.02,2.81.6,2.73,2.67-.13,3.45-.08,6.91-.02,10.36.03,1.57-.58,2.22-2.17,2.2-3.12-.06-6.25-.02-9.37,0-3.21.01-3.26.06-3.26,3.37,0,2.63,0,5.26,0,7.89.01,3.07.09,3.15,3.24,3.15,12.5,0,25,0,37.5.01,1.14,0,2.28.16,3.42.24.54,3.9.22,7.83.21,11.74,0,2.13.73,2.86,2.86,2.85,3.91-.02,7.84-.34,11.74.21.54,3.9.22,7.83.21,11.74,0,2.13.73,2.86,2.86,2.85,3.91-.02,7.84-.34,11.74.21.54,3.9.22,7.83.21,11.74,0,2.13.73,2.86,2.86,2.85,3.91-.02,7.84-.34,11.74.21.54,3.9.22,7.83.21,11.74,0,2.13.73,2.86,2.86,2.85,3.91-.02,7.84-.34,11.74.21.41,4.9.41,9.79,0,14.69-3.92.54-7.87.2-11.8.21-1.98,0-2.86.6-2.78,2.69.12,3.04.12,6.08,0,9.12-.08,2.09.81,2.68,2.78,2.69,3.93,0,7.88-.33,11.8.21.54,3.9.22,7.83.21,11.74,0,2.13.73,2.86,2.86,2.85,3.91-.02,7.84-.34,11.74.21.54,3.9.22,7.83.21,11.74,0,2.13.73,2.86,2.86,2.85,3.91-.02,7.84-.34,11.74.21.54,3.9.22,7.83.21,11.74,0,2.13.73,2.86,2.86,2.85,3.91-.02,7.84-.34,11.74.21.54,3.9.22,7.83.21,11.74,0,2.13.73,2.86,2.86,2.85,3.91-.02,7.84-.34,11.74.21.54,3.9.22,7.83.21,11.74,0,2.14.73,2.86,2.86,2.85,3.91-.02,7.84-.34,11.74.21ZM799.37,489.11c.54,4,.16,8.02.22,12.03.02,1.72.54,2.59,2.4,2.55,3.28-.08,6.56-.05,9.84-.01,1.56.02,2.24-.65,2.21-2.21-.04-2.95,0-5.9,0-8.86,0-3.3-.06-3.3-3.26-3.37-3.76-.09-7.54.3-11.29-.23-.41-4.9-.41-9.79,0-14.69,4-.55,8.02-.16,12.03-.22,1.72-.03,2.59-.53,2.55-2.4-.08-3.28-.05-6.56-.01-9.84.02-1.56-.65-2.24-2.21-2.21-3.03.04-6.08.13-9.1-.03-2.33-.12-3.21.63-3.17,3.06.07,3.84.34,7.7-.2,11.53-4.9.41-9.79.4-14.69,0-.55-4-.16-8.02-.22-12.03-.03-1.72-.53-2.59-2.4-2.55-3.28.08-6.56.05-9.84.01-1.56-.02-2.24.65-2.21,2.21.04,3.03.13,6.08-.03,9.1-.12,2.33.63,3.21,3.06,3.17,3.84-.07,7.7-.34,11.53.2.4,4.9.41,9.79,0,14.69-4,.54-8.02.16-12.03.22-1.72.02-2.59.54-2.55,2.4.08,3.28.05,6.56.01,9.84-.02,1.56.65,2.24,2.21,2.21,2.95-.04,5.9,0,8.86,0,3.3,0,3.3-.06,3.37-3.26.09-3.76-.3-7.54.23-11.29,4.9-.41,9.8-.41,14.7,0ZM147.99,489.11c.54,4,.16,8.02.22,12.03.02,1.72.54,2.59,2.4,2.55,3.28-.08,6.56-.05,9.84-.01,1.56.02,2.24-.65,2.21-2.21-.04-2.95,0-5.9,0-8.86,0-3.3-.06-3.3-3.26-3.37-3.76-.09-7.54.3-11.29-.23-.41-4.9-.41-9.79,0-14.69,4-.55,8.02-.16,12.03-.22,1.72-.03,2.59-.53,2.55-2.4-.08-3.28-.05-6.56-.01-9.84.02-1.56-.65-2.24-2.21-2.21-3.03.04-6.08.13-9.1-.03-2.33-.12-3.21.63-3.17,3.06.07,3.84.34,7.7-.2,11.53-4.9.41-9.79.4-14.69,0-.55-4-.16-8.02-.22-12.03-.03-1.72-.53-2.59-2.4-2.55-3.28.08-6.56.05-9.84.01-1.56-.02-2.24.65-2.21,2.21.04,3.03.13,6.08-.03,9.1-.12,2.33.63,3.21,3.06,3.17,3.84-.07,7.7-.34,11.53.2.4,4.9.41,9.79,0,14.69-4,.54-8.02.16-12.03.22-1.72.02-2.59.54-2.55,2.4.08,3.28.05,6.56.01,9.84-.02,1.56.65,2.24,2.21,2.21,2.95-.04,5.9,0,8.86,0,3.3,0,3.3-.06,3.37-3.26.09-3.76-.3-7.54.23-11.29,4.9-.41,9.8-.41,14.7,0ZM769.76,193.02c.54,4,.16,8.02.22,12.03.02,1.72.54,2.59,2.4,2.55,3.28-.08,6.56-.05,9.84-.01,1.56.02,2.24-.65,2.21-2.21-.04-2.95,0-5.9,0-8.86,0-3.3-.06-3.3-3.26-3.37-3.76-.09-7.54.3-11.29-.23-.41-4.9-.41-9.79,0-14.69,4-.56,8.02-.16,12.03-.22,1.72-.03,2.59-.53,2.55-2.4-.08-3.28-.05-6.56-.01-9.84.02-1.56-.65-2.23-2.21-2.21-3.03.04-6.08.13-9.1-.03-2.33-.12-3.21.63-3.17,3.06.07,3.84.34,7.7-.2,11.53-4.9.4-9.79.4-14.69,0-.55-4-.16-8.02-.22-12.03-.03-1.72-.53-2.59-2.4-2.55-3.28.08-6.56.05-9.84.01-1.56-.02-2.24.65-2.21,2.21.04,3.03.13,6.08-.03,9.1-.12,2.33.63,3.21,3.06,3.17,3.84-.07,7.7-.34,11.53.2.53,3.91.22,7.83.2,11.74,0,2.14.73,2.86,2.86,2.85,3.91-.02,7.84-.34,11.74.21ZM162.9,193.02c3.9-.54,7.83-.22,11.74-.21,2.13,0,2.87-.72,2.86-2.85-.02-3.91-.33-7.84.2-11.74,4-.55,8.02-.16,12.03-.22,1.72-.03,2.59-.53,2.55-2.4-.08-3.28-.05-6.56-.01-9.84.02-1.56-.65-2.24-2.21-2.21-3.03.04-6.08.13-9.1-.03-2.33-.12-3.21.63-3.17,3.06.07,3.84.34,7.7-.2,11.53-4.9.41-9.79.4-14.69,0-.56-4-.16-8.02-.22-12.03-.03-1.72-.53-2.59-2.4-2.55-3.28.08-6.56.05-9.84.01-1.56-.02-2.23.65-2.21,2.21.04,3.03.13,6.08-.03,9.1-.12,2.33.63,3.21,3.06,3.17,3.84-.07,7.7-.34,11.53.2.4,4.9.41,9.79,0,14.69-4,.54-8.02.16-12.03.22-1.72.02-2.59.54-2.55,2.4.08,3.28.05,6.56.01,9.84-.02,1.56.65,2.24,2.21,2.21,2.95-.04,5.9,0,8.86,0,3.3,0,3.3-.06,3.37-3.26.09-3.76-.3-7.54.23-11.29ZM221.87,170.76c0-1.64-.05-3.28.01-4.91.07-1.7-.71-2.34-2.37-2.31-3.28.06-6.55.05-9.83,0-1.54-.02-2.26.6-2.24,2.18.04,3.36.04,6.72,0,10.08-.02,1.58.7,2.2,2.24,2.18,3.28-.04,6.55-.05,9.83,0,1.65.03,2.43-.6,2.37-2.31-.06-1.64-.01-3.28-.01-4.91ZM266.67,170.75c0,1.72.02,3.44,0,5.16-.02,1.46.68,2.07,2.1,2.06,3.36-.03,6.72-.03,10.08,0,1.53.02,2.26-.59,2.25-2.18-.04-3.36-.04-6.72,0-10.08.02-1.58-.7-2.2-2.24-2.19-3.28.04-6.55.05-9.83,0-1.65-.03-2.44.6-2.37,2.3.06,1.64.01,3.28.02,4.91ZM340.3,170.62c0-1.56-.05-3.11.01-4.67.06-1.62-.52-2.45-2.26-2.42-3.36.06-6.72.04-10.08.01-1.43-.01-2.11.61-2.1,2.07.02,3.44.02,6.88,0,10.32,0,1.28.52,2.02,1.88,2.02,3.52,0,7.04-.01,10.57,0,1.5,0,2-.81,1.98-2.18-.03-1.72,0-3.44,0-5.16ZM628.97,177.96c1.8,0,3.6-.01,5.41,0,1.3.01,2-.55,2-1.9,0-3.52,0-7.04,0-10.57,0-1.33-.64-1.95-1.96-1.94-3.52.01-7.04,0-10.57,0-1.35,0-1.89.72-1.89,2.01.01,3.44.02,6.88,0,10.32-.01,1.44.65,2.1,2.09,2.07,1.64-.03,3.28,0,4.92,0ZM681.19,170.66c0,1.72.02,3.44,0,5.16-.03,1.4.53,2.15,2.01,2.15,3.44-.02,6.88-.02,10.32,0,1.44.01,2.1-.63,2.09-2.08-.03-3.44-.02-6.88,0-10.32,0-1.48-.73-2.05-2.13-2.03-1.72.03-3.44,0-5.16,0q-7.12,0-7.12,7.11ZM96.47,222.77c-1.72,0-3.44.05-5.16-.01-1.71-.06-2.33.72-2.31,2.37.06,3.28.05,6.55,0,9.83-.02,1.54.61,2.26,2.19,2.24,3.36-.04,6.72-.04,10.08,0,1.59.02,2.2-.71,2.18-2.25-.04-3.36-.03-6.72,0-10.08.01-1.43-.6-2.13-2.06-2.1-1.64.03-3.28,0-4.92,0ZM125.59,237.18c1.72,0,3.44-.05,5.16.01,1.7.06,2.34-.71,2.31-2.37-.06-3.28-.05-6.55,0-9.83.02-1.54-.6-2.26-2.18-2.24-3.36.04-6.72.04-10.08,0-1.58-.02-2.2.71-2.18,2.24.04,3.28.05,6.55,0,9.83-.03,1.66.61,2.43,2.31,2.37,1.55-.06,3.11-.01,4.67-.01ZM177.85,229.78c0,1.72.04,3.44-.01,5.16-.04,1.53.58,2.27,2.17,2.25,3.36-.04,6.72-.04,10.08,0,1.58.02,2.21-.69,2.19-2.23-.04-3.36-.03-6.72,0-10.08.01-1.42-.58-2.13-2.04-2.12-3.44.02-6.88.02-10.32,0-1.46-.01-2.09.67-2.06,2.1.03,1.64,0,3.28,0,4.91ZM251.47,229.99c0-1.72-.02-3.44,0-5.16.02-1.45-.67-2.07-2.1-2.06-3.36.03-6.72.03-10.08,0-1.53-.02-2.27.58-2.25,2.17.04,3.36.04,6.72,0,10.08-.02,1.57.68,2.21,2.23,2.19,3.28-.04,6.55-.05,9.83,0,1.64.03,2.44-.59,2.38-2.3-.06-1.64-.01-3.28-.02-4.91ZM718,237.18c1.72,0,3.44-.02,5.16,0,1.46.02,2.07-.68,2.06-2.1-.03-3.36-.03-6.72,0-10.08.02-1.53-.59-2.26-2.18-2.25-3.36.04-6.72.04-10.08,0-1.58-.02-2.2.7-2.19,2.24.04,3.28.05,6.55,0,9.83-.03,1.65.6,2.44,2.3,2.37,1.64-.06,3.28-.01,4.91-.02ZM784.42,229.75c0-1.64-.02-3.28,0-4.92.03-1.45-.65-2.08-2.09-2.07-3.44.03-6.88.02-10.32,0-1.48,0-2.03.75-2.01,2.15.03,3.36.04,6.72,0,10.08-.02,1.57.66,2.22,2.22,2.2,3.19-.04,6.39-.1,9.58.02,2.1.08,2.77-.84,2.65-2.79-.1-1.55-.02-3.11-.03-4.67ZM814.03,230.21c0-1.64-.06-3.28.02-4.91.08-1.73-.53-2.59-2.39-2.55-3.27.08-6.55.05-9.83,0-1.55-.02-2.24.63-2.22,2.2.04,3.36.04,6.72,0,10.07-.02,1.59.73,2.18,2.26,2.16,3.36-.04,6.72-.03,10.07,0,1.43.01,2.12-.61,2.1-2.06-.03-1.64,0-3.28,0-4.91ZM843.64,230.05c0-1.72-.02-3.44,0-5.16.02-1.41-.57-2.14-2.04-2.13-3.44.02-6.88.02-10.32,0-1.45-.01-2.07.67-2.06,2.1.03,3.36.05,6.72-.01,10.07-.03,1.74.8,2.32,2.42,2.26,1.64-.06,3.28-.01,4.91-.01q7.1,0,7.1-7.13ZM96.44,252.38c-1.8,0-3.6.01-5.41,0-1.3-.01-2,.55-2,1.9,0,3.52,0,7.04,0,10.57,0,1.33.64,1.95,1.96,1.94,3.52-.01,7.04,0,10.57,0,1.35,0,1.89-.72,1.89-2.01-.01-3.44-.02-6.88,0-10.32.01-1.45-.65-2.1-2.09-2.07-1.64.03-3.28,0-4.91,0ZM806.82,266.78c1.72,0,3.44-.02,5.16,0,1.45.02,2.07-.67,2.06-2.1-.03-3.36-.03-6.72,0-10.08.02-1.53-.58-2.27-2.17-2.25-3.36.04-6.72.04-10.08,0-1.58-.02-2.21.69-2.19,2.23.04,3.28.05,6.55,0,9.83-.03,1.65.59,2.44,2.3,2.38,1.64-.06,3.28-.01,4.91-.02ZM89.02,289.2c0,1.64.05,3.28-.01,4.91-.07,1.71.73,2.33,2.37,2.3,3.28-.06,6.55-.05,9.83,0,1.54.02,2.25-.61,2.23-2.19-.04-3.36-.04-6.72,0-10.08.02-1.59-.72-2.19-2.25-2.17-3.36.04-6.72.03-10.08,0-1.43-.01-2.13.6-2.1,2.06.03,1.72,0,3.44,0,5.16ZM155.49,296.4c1.64,0,3.28-.04,4.91.01,1.53.04,2.27-.58,2.25-2.17-.04-3.36-.04-6.72,0-10.08.02-1.57-.68-2.21-2.23-2.19-3.36.04-6.72.03-10.08,0-1.42-.01-2.13.57-2.12,2.04.02,3.44.02,6.88,0,10.32-.01,1.45.67,2.09,2.1,2.06,1.72-.03,3.44,0,5.16,0ZM754.82,289.43c0-1.72-.05-3.44.01-5.16.06-1.71-.73-2.33-2.38-2.3-3.28.06-6.55.05-9.83,0-1.54-.02-2.25.61-2.23,2.19.04,3.36.04,6.72,0,10.08-.02,1.59.72,2.19,2.25,2.17,3.36-.04,6.72-.03,10.08,0,1.43.01,2.13-.6,2.1-2.06-.03-1.64,0-3.28,0-4.91ZM806.74,296.39c1.72,0,3.44-.02,5.16,0,1.41.03,2.14-.56,2.13-2.03-.02-3.44-.02-6.88,0-10.32.01-1.45-.66-2.08-2.09-2.07-3.44.03-6.88.02-10.32,0-1.49,0-2.03.76-2.01,2.15.03,1.72,0,3.44,0,5.16q0,7.11,7.13,7.1ZM865.82,281.99c-1.64,0-3.28.02-4.91,0-1.45-.03-2.08.65-2.07,2.09.03,3.44.02,6.88,0,10.32,0,1.48.75,2.03,2.15,2.01,3.36-.03,6.72-.04,10.08,0,1.57.02,2.22-.66,2.2-2.22-.04-3.19-.1-6.39.02-9.58.08-2.1-.84-2.77-2.79-2.65-1.55.1-3.11.02-4.67.03ZM73.83,319.04c0-1.72-.05-3.44.01-5.16.06-1.71-.73-2.33-2.38-2.3-3.28.06-6.55.05-9.83,0-1.54-.02-2.25.61-2.23,2.19.04,3.36.04,6.72,0,10.08-.02,1.59.72,2.19,2.25,2.17,3.36-.04,6.72-.03,10.08,0,1.43.01,2.13-.6,2.1-2.06-.03-1.64,0-3.28,0-4.92ZM125.6,326.01c1.72,0,3.44-.05,5.16.01,1.71.06,2.33-.73,2.3-2.38-.06-3.28-.05-6.55,0-9.83.02-1.54-.61-2.25-2.19-2.23-3.36.04-6.72.04-10.08,0-1.59-.02-2.19.72-2.17,2.25.04,3.36.03,6.72,0,10.08-.01,1.43.6,2.13,2.06,2.1,1.64-.03,3.28,0,4.92,0ZM185.06,326.01c1.64,0,3.28-.05,4.91.01,1.71.07,2.33-.73,2.3-2.38-.06-3.28-.05-6.55,0-9.83.02-1.54-.62-2.25-2.19-2.23-3.36.04-6.72.04-10.08,0-1.59-.02-2.19.72-2.17,2.25.04,3.36.03,6.72,0,10.08-.01,1.43.61,2.12,2.06,2.1,1.72-.03,3.44,0,5.16,0ZM784.42,319.01c0-1.8-.01-3.6,0-5.41.01-1.3-.55-2-1.9-2-3.52,0-7.04,0-10.57,0-1.33,0-1.95.64-1.94,1.96.01,3.52,0,7.04,0,10.57,0,1.35.72,1.89,2.01,1.89,3.44-.01,6.88-.02,10.32,0,1.45.01,2.1-.65,2.07-2.09-.03-1.64,0-3.28,0-4.92ZM829.23,318.59c0,1.8.01,3.6,0,5.41-.01,1.3.55,2,1.9,2,3.52,0,7.04,0,10.57,0,1.33,0,1.95-.64,1.94-1.96-.01-3.52,0-7.04,0-10.57,0-1.35-.72-1.89-2.01-1.89-3.44.01-6.88.02-10.32,0-1.45-.01-2.1.65-2.07,2.09.03,1.64,0,3.28,0,4.92ZM73.82,348.18c0-1.64-.02-3.28,0-4.92.03-1.45-.65-2.08-2.09-2.07-3.44.03-6.88.02-10.32,0-1.48,0-2.03.75-2.01,2.15.03,3.36.04,6.72,0,10.08-.02,1.57.66,2.22,2.22,2.2,3.19-.04,6.39-.1,9.58.02,2.1.08,2.77-.84,2.65-2.79-.1-1.55-.02-3.11-.03-4.67ZM125.82,341.2c-1.64,0-3.28.05-4.91-.01-1.71-.07-2.33.73-2.3,2.38.06,3.28.05,6.55,0,9.83-.02,1.54.61,2.25,2.19,2.23,3.36-.04,6.72-.04,10.07,0,1.59.02,2.19-.72,2.17-2.25-.04-3.36-.03-6.72,0-10.07.01-1.43-.61-2.12-2.06-2.1-1.72.03-3.44,0-5.16,0ZM776.97,355.61c1.72,0,3.44-.05,5.16.01,1.69.06,2.34-.71,2.31-2.37-.06-3.28-.05-6.55,0-9.83.02-1.54-.6-2.26-2.18-2.24-3.36.04-6.72.04-10.07,0-1.58-.02-2.2.7-2.18,2.24.04,3.28.05,6.55,0,9.83-.03,1.65.6,2.44,2.31,2.37,1.55-.06,3.11-.01,4.67-.01ZM829.23,348.39c0,1.72.02,3.44,0,5.16-.02,1.45.66,2.08,2.09,2.07,3.36-.03,6.72-.03,10.08,0,1.53.02,2.27-.57,2.26-2.17-.04-3.36-.04-6.72,0-10.08.02-1.57-.68-2.22-2.23-2.2-3.28.04-6.55.07-9.83-.01-1.86-.04-2.47.82-2.39,2.55.07,1.55.02,3.11.02,4.67ZM895.64,355.61c1.72,0,3.44-.02,5.16,0,1.46.02,2.07-.67,2.06-2.1-.03-3.36-.03-6.72,0-10.08.02-1.53-.58-2.27-2.17-2.25-3.36.04-6.72.04-10.08,0-1.58-.02-2.21.69-2.19,2.23.04,3.28.05,6.55,0,9.83-.03,1.65.59,2.44,2.3,2.38,1.64-.06,3.28-.01,4.91-.02ZM103.43,378.03c0-1.72-.02-3.44,0-5.16.02-1.45-.67-2.07-2.1-2.06-3.36.03-6.72.03-10.08,0-1.53-.02-2.27.58-2.25,2.17.04,3.36.04,6.72,0,10.08-.02,1.57.68,2.21,2.23,2.19,3.28-.04,6.55-.05,9.83,0,1.64.03,2.44-.59,2.38-2.3-.06-1.64-.01-3.28-.02-4.91ZM155.43,385.22c1.72,0,3.44-.02,5.16,0,1.45.02,2.08-.66,2.07-2.09-.03-3.36-.03-6.72,0-10.08.02-1.53-.57-2.27-2.17-2.26-3.36.04-6.72.04-10.08,0-1.57-.02-2.22.68-2.2,2.23.04,3.28.07,6.55-.01,9.83-.04,1.86.82,2.47,2.54,2.39,1.55-.07,3.11-.02,4.67-.02ZM799.62,377.85c0,1.72.04,3.44-.01,5.16-.04,1.55.62,2.25,2.19,2.23,3.36-.04,6.72-.03,10.08,0,1.4.01,2.16-.52,2.15-2.01-.02-3.44-.02-6.88,0-10.32.01-1.43-.62-2.11-2.07-2.09-3.44.02-6.88.02-10.32,0-1.47,0-2.06.71-2.03,2.13.03,1.64,0,3.28,0,4.91ZM37,400.42c-1.64,0-3.28.05-4.91-.01-1.71-.07-2.33.73-2.3,2.38.06,3.28.05,6.55,0,9.83-.02,1.54.61,2.25,2.19,2.23,3.36-.04,6.72-.04,10.07,0,1.59.02,2.19-.72,2.17-2.25-.04-3.36-.03-6.72,0-10.07.01-1.43-.61-2.12-2.06-2.1-1.72.03-3.44,0-5.16,0ZM96.45,400.42c-1.72,0-3.44.04-5.16-.01-1.51-.04-2.3.53-2.28,2.14.04,3.36.04,6.72,0,10.08-.02,1.55.64,2.24,2.2,2.22,3.36-.04,6.72-.03,10.08,0,1.4.01,2.16-.53,2.15-2.01-.02-3.44-.02-6.88,0-10.32.01-1.44-.63-2.11-2.07-2.09-1.64.03-3.28,0-4.92,0ZM133.04,407.85c0-1.72-.04-3.44.01-5.16.04-1.51-.53-2.3-2.14-2.28-3.36.04-6.72.04-10.08,0-1.55-.02-2.24.64-2.22,2.2.04,3.36.03,6.72,0,10.08-.01,1.4.53,2.16,2.01,2.15,3.44-.02,6.88-.02,10.32,0,1.44.01,2.11-.63,2.09-2.07-.03-1.64,0-3.28,0-4.92ZM155.46,414.83c1.56,0,3.12-.06,4.67.02,1.73.08,2.59-.52,2.55-2.39-.08-3.27-.05-6.55-.01-9.83.02-1.55-.62-2.25-2.2-2.23-3.36.04-6.72.04-10.08,0-1.59-.02-2.18.73-2.17,2.26.04,3.36.03,6.72,0,10.08-.01,1.43.61,2.12,2.07,2.09,1.72-.03,3.44,0,5.16,0ZM399.51,407.64c0-1.72-.02-3.44,0-5.16.02-1.45-.66-2.08-2.09-2.07-3.36.03-6.72.03-10.08,0-1.53-.02-2.27.57-2.26,2.17.04,3.36.04,6.72,0,10.08-.02,1.57.68,2.22,2.23,2.2,3.28-.04,6.55-.07,9.83.01,1.86.04,2.47-.82,2.39-2.54-.07-1.55-.02-3.11-.02-4.67ZM770.01,407.63c0,1.64.05,3.28-.01,4.91-.07,1.71.73,2.33,2.37,2.3,3.28-.06,6.55-.05,9.83,0,1.54.02,2.25-.61,2.23-2.19-.04-3.36-.04-6.72,0-10.08.02-1.59-.72-2.19-2.25-2.17-3.36.04-6.72.03-10.08,0-1.43-.01-2.13.6-2.1,2.06.03,1.72,0,3.44,0,5.16ZM799.62,407.46c0,1.72.04,3.44-.01,5.16-.04,1.55.62,2.25,2.19,2.23,3.36-.04,6.72-.03,10.08,0,1.4.01,2.16-.52,2.15-2.01-.02-3.44-.02-6.88,0-10.32.01-1.43-.62-2.11-2.07-2.09-3.44.02-6.88.02-10.32,0-1.47,0-2.06.71-2.03,2.13.03,1.64,0,3.28,0,4.91ZM873.25,407.61c0-1.56-.06-3.12.02-4.67.08-1.73-.52-2.59-2.39-2.54-3.27.08-6.55.05-9.83.01-1.55-.02-2.25.63-2.23,2.2.04,3.36.03,6.72,0,10.08-.01,1.4.52,2.16,2.01,2.15,3.44-.02,6.88-.02,10.32,0,1.43.01,2.12-.62,2.09-2.07-.03-1.72,0-3.44,0-5.16ZM96.23,430.03c-1.64,0-3.28.05-4.91-.01-1.7-.07-2.34.71-2.31,2.37.06,3.28.05,6.55,0,9.83-.02,1.54.6,2.26,2.18,2.24,3.36-.04,6.72-.04,10.08,0,1.58.02,2.2-.7,2.18-2.24-.04-3.28-.05-6.55,0-9.83.03-1.65-.6-2.43-2.31-2.37-1.64.06-3.28.01-4.91.01ZM133.04,437.48c0-1.72-.05-3.44.01-5.16.06-1.7-.72-2.34-2.37-2.31-3.28.06-6.55.05-9.83,0-1.54-.02-2.26.6-2.24,2.18.04,3.36.04,6.72,0,10.08-.02,1.58.71,2.2,2.24,2.18,3.28-.04,6.55-.05,9.83,0,1.66.03,2.43-.61,2.37-2.31-.06-1.55-.01-3.11-.01-4.67ZM155.36,444.44c1.72,0,3.44-.02,5.16,0,1.41.02,2.14-.57,2.13-2.04-.02-3.44-.02-6.88,0-10.32.01-1.45-.67-2.07-2.1-2.06-3.36.03-6.72.05-10.07-.01-1.74-.03-2.32.8-2.26,2.42.06,1.64.01,3.28.01,4.91q0,7.1,7.13,7.1ZM385.1,437.24c0,1.64.05,3.28-.01,4.91-.07,1.71.73,2.33,2.38,2.3,3.28-.06,6.55-.05,9.83,0,1.54.02,2.25-.61,2.23-2.19-.04-3.36-.04-6.72,0-10.07.02-1.59-.72-2.19-2.25-2.17-3.36.04-6.72.03-10.08,0-1.43-.01-2.12.61-2.1,2.06.03,1.72,0,3.44,0,5.16ZM429.12,437.13c0-1.72,0-3.44,0-5.16,0-1.33-.64-1.95-1.96-1.94-3.52.01-7.04,0-10.57,0-1.35,0-1.89.72-1.89,2.01.01,3.44.02,6.88,0,10.32-.01,1.45.65,2.09,2.09,2.07,3.44-.03,6.88-.02,10.32,0,1.48,0,2.04-.74,2.01-2.15-.03-1.72,0-3.44-.01-5.16ZM777.44,430.03c-1.72,0-3.44.04-5.16-.01-1.51-.04-2.3.53-2.28,2.14.04,3.36.04,6.72,0,10.07-.02,1.55.64,2.24,2.21,2.22,3.36-.04,6.72-.03,10.07,0,1.4.01,2.15-.54,2.14-2.02-.02-3.44-.02-6.88,0-10.32.01-1.44-.63-2.11-2.07-2.09-1.64.03-3.28,0-4.91,0ZM814.03,437.33c0-1.72-.02-3.44,0-5.16.03-1.4-.53-2.15-2.01-2.14-3.44.02-6.88.02-10.32,0-1.44-.01-2.1.63-2.09,2.08.03,3.44.02,6.88,0,10.32,0,1.48.73,2.05,2.13,2.03,1.72-.03,3.44,0,5.16,0q7.12,0,7.12-7.11ZM843.64,437.48c0-1.72-.05-3.44.01-5.16.06-1.69-.71-2.34-2.37-2.31-3.28.06-6.55.05-9.83,0-1.54-.02-2.26.6-2.24,2.18.04,3.36.04,6.72,0,10.07-.02,1.58.7,2.2,2.24,2.18,3.28-.04,6.55-.05,9.83,0,1.65.03,2.44-.6,2.37-2.31-.06-1.55-.01-3.11-.01-4.67ZM103.43,466.67c0-1.64-.02-3.28,0-4.91.03-1.41-.56-2.14-2.03-2.13-3.44.02-6.88.02-10.32,0-1.45-.01-2.09.66-2.07,2.09.03,1.72,0,3.44,0,5.16q0,7.17,7.07,7.17,7.35,0,7.34-7.38ZM392.32,459.64c-1.72,0-3.44.02-5.16,0-1.45-.02-2.07.67-2.06,2.1.03,3.36.03,6.72,0,10.08-.02,1.53.58,2.27,2.17,2.25,3.36-.04,6.72-.04,10.08,0,1.57.02,2.21-.68,2.19-2.23-.04-3.28-.05-6.55,0-9.83.03-1.64-.59-2.44-2.3-2.38-1.64.06-3.28.01-4.91.02ZM429.12,467.09c0-1.72-.05-3.44.01-5.16.06-1.7-.71-2.34-2.37-2.31-3.28.06-6.55.05-9.83,0-1.54-.02-2.26.6-2.24,2.18.04,3.36.04,6.72,0,10.08-.02,1.58.71,2.2,2.24,2.18,3.28-.04,6.55-.05,9.83,0,1.66.03,2.43-.61,2.37-2.31-.06-1.55-.01-3.11-.01-4.67ZM843.64,467.07c0-1.64-.06-3.28.02-4.91.08-1.73-.53-2.59-2.39-2.55-3.27.08-6.55.05-9.83,0-1.55-.02-2.24.63-2.22,2.2.04,3.36.03,6.72,0,10.07-.01,1.4.52,2.16,2.01,2.15,3.44-.02,6.88-.02,10.32,0,1.43.01,2.12-.61,2.1-2.06-.03-1.64,0-3.28,0-4.91ZM103.43,496.69c0-1.72-.05-3.44.01-5.16.06-1.71-.73-2.33-2.38-2.3-3.28.06-6.55.05-9.83,0-1.54-.02-2.25.61-2.23,2.19.04,3.36.04,6.72,0,10.08-.02,1.59.72,2.19,2.25,2.17,3.36-.04,6.72-.03,10.08,0,1.43.01,2.13-.6,2.1-2.06-.03-1.64,0-3.28,0-4.91ZM458.73,496.61c0-1.72-.03-3.44.01-5.16.04-1.56-.66-2.23-2.21-2.21-3.36.04-6.72.03-10.07,0-1.41-.01-2.15.55-2.14,2.02.02,3.44.02,6.88,0,10.32-.01,1.44.64,2.1,2.08,2.08,1.72-.03,3.44,0,5.16,0q7.18,0,7.17-7.05ZM429.12,526.28c0-1.72-.04-3.44.01-5.16.04-1.51-.53-2.3-2.14-2.28-3.36.04-6.72.04-10.08,0-1.55-.02-2.24.64-2.22,2.2.04,3.36.03,6.72,0,10.08-.01,1.4.53,2.16,2.01,2.15,3.44-.02,6.88-.02,10.32,0,1.44.01,2.11-.63,2.09-2.07-.03-1.64,0-3.28,0-4.91ZM444.32,526.07c0,1.64.05,3.28-.01,4.91-.07,1.71.73,2.33,2.38,2.3,3.28-.06,6.55-.05,9.83,0,1.54.02,2.25-.62,2.23-2.19-.04-3.36-.04-6.72,0-10.08.02-1.59-.72-2.19-2.25-2.17-3.36.04-6.72.03-10.08,0-1.43-.01-2.12.61-2.1,2.06.03,1.72,0,3.44,0,5.16ZM517.95,525.83c0-1.64-.02-3.28,0-4.92.03-1.45-.65-2.08-2.09-2.07-3.44.03-6.88.02-10.32,0-1.48,0-2.03.75-2.01,2.15.03,3.36.04,6.72,0,10.08-.02,1.57.66,2.22,2.22,2.2,3.19-.04,6.39-.1,9.58.02,2.1.08,2.77-.84,2.65-2.79-.1-1.55-.02-3.11-.03-4.67ZM488.34,555.5c0-1.64-.02-3.28,0-4.92.03-1.41-.56-2.14-2.03-2.13-3.44.02-6.88.02-10.32,0-1.45-.01-2.09.66-2.07,2.09.03,1.72,0,3.44,0,5.16q0,7.17,7.07,7.17,7.35,0,7.34-7.38ZM488.34,585.06c0-1.64-.02-3.28,0-4.92.03-1.44-.63-2.1-2.07-2.09-3.44.03-6.88.02-10.32,0-1.48,0-2.05.73-2.03,2.13.03,1.72,0,3.44,0,5.16q0,7.12,7.11,7.12,7.31,0,7.3-7.42ZM562.76,644.47c0,1.72.02,3.44,0,5.16-.02,1.45.66,2.08,2.09,2.07,3.44-.03,6.88-.02,10.32,0,1.49,0,2.02-.76,2.01-2.15-.03-3.36-.04-6.72,0-10.08.02-1.57-.68-2.22-2.23-2.2-3.28.04-6.55.07-9.83-.01-1.86-.04-2.47.82-2.39,2.54.07,1.55.02,3.11.02,4.67ZM754.82,674.09c0-1.64-.05-3.28.01-4.91.07-1.71-.73-2.33-2.38-2.3-3.28.06-6.55.05-9.83,0-1.54-.02-2.25.61-2.23,2.19.04,3.36.04,6.72,0,10.07-.02,1.59.72,2.19,2.25,2.17,3.36-.04,6.72-.03,10.07,0,1.43.01,2.12-.61,2.1-2.06-.03-1.72,0-3.44,0-5.16ZM784.42,674.18c0-1.72-.02-3.44,0-5.16.02-1.41-.57-2.14-2.04-2.13-3.44.02-6.88.02-10.32,0-1.45-.01-2.07.67-2.06,2.1.03,3.36.05,6.72-.01,10.07-.03,1.74.8,2.32,2.42,2.26,1.64-.06,3.28-.01,4.91-.01q7.1,0,7.1-7.13ZM717.98,710.91c1.72,0,3.44-.02,5.16,0,1.45.02,2.08-.66,2.07-2.09-.03-3.44-.02-6.88,0-10.32,0-1.49-.76-2.02-2.15-2.01-3.36.03-6.72.04-10.08,0-1.57-.02-2.22.68-2.2,2.23.04,3.28.07,6.55-.01,9.83-.04,1.86.82,2.47,2.54,2.39,1.55-.07,3.11-.02,4.67-.02ZM740.4,703.46c0,1.72.05,3.44-.01,5.16-.06,1.7.71,2.34,2.37,2.31,3.28-.06,6.55-.05,9.83,0,1.54.02,2.26-.6,2.24-2.18-.04-3.36-.04-6.72,0-10.08.02-1.58-.71-2.2-2.24-2.18-3.28.04-6.55.05-9.83,0-1.66-.03-2.43.61-2.37,2.31.06,1.55.01,3.11.01,4.67ZM784.42,703.75c0-1.72-.02-3.44,0-5.16.03-1.43-.61-2.11-2.06-2.1-3.44.02-6.88.02-10.32,0-1.47,0-2.05.72-2.04,2.13.02,3.36.03,6.72,0,10.07-.02,1.55.63,2.26,2.2,2.22,1.72-.05,3.44,0,5.16,0q7.07,0,7.06-7.16ZM747.61,740.52c1.64,0,3.28-.05,4.91.01,1.7.07,2.34-.71,2.31-2.37-.06-3.28-.05-6.55,0-9.83.02-1.54-.6-2.26-2.18-2.24-3.36.04-6.72.04-10.08,0-1.58-.02-2.2.7-2.18,2.24.04,3.28.05,6.55,0,9.83-.03,1.65.6,2.43,2.31,2.37,1.64-.06,3.28-.01,4.91-.01ZM806.89,726.11c-1.72,0-3.44.02-5.16,0-1.42-.03-2.12.59-2.11,2.05.02,3.44.02,6.88,0,10.32,0,1.45.69,2.07,2.11,2.06,3.36-.03,6.72-.03,10.07,0,1.54.02,2.28-.6,2.24-2.18-.05-1.72,0-3.44,0-5.16q0-7.09-7.15-7.08ZM784.42,762.93c0-1.72-.02-3.44,0-5.16.02-1.46-.68-2.07-2.1-2.06-3.36.03-6.72.03-10.08,0-1.53-.02-2.26.59-2.25,2.18.04,3.36.04,6.72,0,10.08-.02,1.58.7,2.2,2.24,2.19,3.28-.04,6.55-.05,9.83,0,1.65.03,2.44-.6,2.37-2.31-.06-1.64-.01-3.28-.02-4.91ZM799.62,762.92c0,1.72.02,3.44,0,5.16-.02,1.46.68,2.07,2.1,2.06,3.36-.03,6.72-.03,10.08,0,1.53.02,2.26-.59,2.25-2.18-.04-3.36-.04-6.72,0-10.08.02-1.58-.7-2.2-2.24-2.19-3.28.04-6.55.05-9.83,0-1.65-.03-2.44.6-2.37,2.3.06,1.64.01,3.28.02,4.91ZM843.64,792.58c0-1.72-.02-3.44,0-5.16.03-1.43-.61-2.11-2.06-2.1-3.44.02-6.88.02-10.32,0-1.47,0-2.05.72-2.04,2.13.02,3.36.03,6.72,0,10.07-.02,1.55.63,2.26,2.2,2.22,1.72-.05,3.44,0,5.16,0q7.07,0,7.06-7.16ZM836.57,814.93c-1.72,0-3.44.04-5.16-.01-1.57-.04-2.22.67-2.2,2.22.04,3.36.03,6.72,0,10.07,0,1.41.57,2.14,2.04,2.13,3.44-.02,6.88-.02,10.32,0,1.45.01,2.09-.67,2.06-2.1-.03-1.72,0-3.44,0-5.16q0-7.16-7.07-7.16ZM888.44,821.91c0,1.64.06,3.28-.02,4.91-.08,1.73.52,2.59,2.39,2.55,3.27-.08,6.55-.05,9.83-.01,1.55.02,2.25-.62,2.23-2.2-.04-3.36-.04-6.72,0-10.08.02-1.59-.73-2.19-2.26-2.17-3.36.04-6.72.03-10.08,0-1.43-.01-2.12.61-2.09,2.07.03,1.64,0,3.28,0,4.92Z"/>
    <path class="cls-1" d="M510.64,45.1c-1.81,0-3.61-.04-5.42.01-1.45.04-2.09-.54-2.07-2.03.05-3.69.04-7.39,0-11.09-.02-1.44.55-2.09,2.03-2.07,3.69.05,7.39.04,11.09,0,1.44-.02,2.09.55,2.07,2.03-.05,3.69-.04,7.39,0,11.09.02,1.44-.55,2.11-2.03,2.07-1.89-.05-3.78-.01-5.67-.01Z"/>
    <path class="cls-1" d="M547.93,37.31c0,1.89-.03,3.78.01,5.67.03,1.38-.42,2.16-1.96,2.14-3.78-.05-7.55-.04-11.33,0-1.37.01-1.9-.63-1.89-1.95.03-3.78.03-7.55,0-11.33-.01-1.37.63-1.9,1.95-1.89,3.78.03,7.55.03,11.33,0,1.37-.01,1.91.63,1.88,1.95-.03,1.81,0,3.61,0,5.42Z"/>
    <path class="cls-1" d="M577.55,37.34c0,7.77,0,7.84-7.31,7.74-2.5-.03-5.66,1.14-7.34-.62-1.56-1.63-.49-4.71-.51-7.15-.07-7.38-.02-7.44,7.29-7.35,2.5.03,5.65-1.14,7.34.62,1.57,1.64.31,4.72.53,6.76Z"/>
    <path class="cls-1" d="M599.36,29.86c2.57.29,5.54-.93,7.14.57,1.74,1.63.57,4.67.62,7.09.05,2.35,1.01,5.33-.46,6.92-1.61,1.74-4.67.57-7.09.62-2.35.05-5.33,1.01-6.92-.46-1.74-1.61-.57-4.67-.62-7.09-.05-2.35-1.01-5.31.46-6.93,1.62-1.79,4.69-.27,6.88-.73Z"/>
    <path class="cls-1" d="M629.24,29.88c2.34.37,5.4-1.04,7.02.72,1.48,1.6.52,4.57.46,6.92-.05,2.42,1.12,5.47-.62,7.09-1.6,1.48-4.57.52-6.92.46-2.42-.05-5.47,1.12-7.09-.62-1.48-1.6-.52-4.57-.46-6.92.05-2.42-1.12-5.46.62-7.09,1.6-1.5,4.57-.29,7-.56Z"/>
    <path class="cls-1" d="M666.35,37.65c0,1.89-.02,3.78,0,5.67.02,1.24-.56,1.78-1.79,1.78-3.86-.02-7.72-.02-11.58,0-1.24,0-1.78-.56-1.78-1.79.02-3.86.02-7.72,0-11.58,0-1.24.56-1.78,1.79-1.78,3.86.02,7.72.02,11.58,0,1.24,0,1.79.56,1.78,1.79-.02,1.97,0,3.94,0,5.91Z"/>
    <path class="cls-1" d="M680.81,37.3q-.01-7.37,7.31-7.37c1.97,0,3.94.04,5.91,0,1.33-.02,1.95.53,1.94,1.89-.03,3.78-.03,7.55,0,11.33,0,1.33-.53,1.95-1.89,1.94-3.78-.03-7.55-.04-11.33,0-1.54.02-1.98-.77-1.95-2.14.04-1.89.01-3.78.01-5.67Z"/>
    <path class="cls-1" d="M207.08,74.29c0-4.11.06-8.22-.03-12.32-.04-1.8.63-2.49,2.44-2.44,3.53.09,7.07.07,10.6.01,1.58-.03,2.2.61,2.18,2.19-.05,4.19-.02,8.38-.01,12.57-.13.15-.26.31-.39.46-4.79,0-9.59,0-14.38,0-.13-.15-.27-.3-.4-.45Z"/>
    <path class="cls-1" d="M236.68,74.29c0-4.11.06-8.22-.03-12.32-.04-1.8.63-2.49,2.44-2.44,3.53.09,7.07.07,10.6.01,1.58-.03,2.2.61,2.18,2.19-.05,4.19-.02,8.38-.01,12.57-.13.15-.26.31-.39.46-4.79,0-9.59,0-14.38,0-.13-.15-.27-.3-.4-.45Z"/>
    <path class="cls-1" d="M281.22,74.48c-4.9.4-9.8.4-14.69,0-.52-4.41-.15-8.84-.21-13.27-.02-1.12.54-1.65,1.65-1.64,3.94,0,7.88,0,11.82,0,1.11,0,1.67.53,1.65,1.64-.07,4.42.31,8.85-.21,13.27Z"/>
    <path class="cls-1" d="M310.83,74.48c-4.9.4-9.8.4-14.69,0-.52-4.41-.15-8.84-.21-13.27-.02-1.12.54-1.65,1.65-1.64,3.94,0,7.88,0,11.82,0,1.11,0,1.67.53,1.65,1.64-.07,4.42.31,8.85-.21,13.27Z"/>
    <path class="cls-1" d="M606.92,74.48c-4.9.4-9.8.4-14.69,0-.52-4.41-.15-8.84-.21-13.27-.02-1.12.54-1.65,1.65-1.64,3.94,0,7.88,0,11.82,0,1.11,0,1.67.53,1.65,1.64-.07,4.42.31,8.85-.21,13.27Z"/>
    <path class="cls-1" d="M636.52,74.48c-4.9.4-9.8.4-14.69,0-.52-4.41-.15-8.84-.21-13.27-.02-1.12.54-1.65,1.65-1.64,3.94,0,7.88,0,11.82,0,1.11,0,1.67.53,1.65,1.64-.07,4.42.31,8.85-.21,13.27Z"/>
    <path class="cls-1" d="M651.2,74.29c0-4.11.06-8.22-.03-12.32-.04-1.8.63-2.49,2.44-2.44,3.53.09,7.07.07,10.6.01,1.58-.03,2.2.61,2.18,2.19-.05,4.19-.02,8.38-.01,12.57-.13.15-.26.31-.39.46-4.79,0-9.59,0-14.38,0-.13-.15-.27-.3-.4-.45Z"/>
    <path class="cls-1" d="M680.81,74.29c0-4.11.06-8.22-.03-12.32-.04-1.8.63-2.49,2.44-2.44,3.53.09,7.07.07,10.6.01,1.58-.03,2.2.61,2.18,2.19-.05,4.19-.02,8.38-.01,12.57-.13.15-.26.31-.39.46-4.79,0-9.59,0-14.38,0-.13-.15-.27-.3-.4-.45Z"/>
    <path class="cls-1" d="M710.42,74.29c0-4.11.06-8.22-.03-12.33-.04-1.8.63-2.49,2.44-2.44,3.53.09,7.07.07,10.6.01,1.58-.03,2.19.62,2.18,2.19-.05,4.19-.01,8.38-.01,12.57-.13.15-.26.31-.39.46-4.79,0-9.59,0-14.38,0l-.4-.45Z"/>
    <path class="cls-1" d="M177.6,89.28c-4.9.4-9.8.4-14.69,0-.52-4.41-.15-8.84-.21-13.27-.02-1.12.54-1.65,1.65-1.64,3.94,0,7.88,0,11.82,0,1.11,0,1.67.53,1.65,1.64-.07,4.42.31,8.85-.21,13.27Z"/>
    <path class="cls-1" d="M192.27,89.09c0-4.08.07-8.17-.04-12.25-.05-1.96.72-2.56,2.59-2.52,4.08.08,8.17,0,12.25-.03.13.15.27.3.4.45,0,4.79,0,9.59,0,14.38-.14.14-.28.29-.41.43-4.79,0-9.59,0-14.38,0-.13-.15-.27-.3-.4-.45Z"/>
    <path class="cls-1" d="M236.62,89.52c-4.77,0-9.54,0-14.32,0-.15-.13-.3-.26-.45-.4,0-4.79,0-9.58,0-14.38.13-.15.26-.31.39-.46,4.81,0,9.63,0,14.44,0,.13.15.27.3.4.45,0,4.79,0,9.59,0,14.38l-.45.4Z"/>
    <path class="cls-1" d="M266.42,89.28c-4.83.54-9.67.11-14.51.24-.15-.13-.3-.26-.45-.4,0-4.79,0-9.58,0-14.38.13-.15.26-.31.39-.46,4.85.26,9.72-.28,14.57.3.4,4.9.4,9.8,0,14.69Z"/>
    <path class="cls-1" d="M296.03,89.28c-4.9.4-9.8.4-14.69,0-.4-4.9-.4-9.8,0-14.69,4.9-.4,9.8-.4,14.69,0,.4,4.9.4,9.8,0,14.69Z"/>
    <path class="cls-1" d="M651.14,89.52c-4.83-.13-9.68.31-14.5-.24-.4-4.9-.4-9.8,0-14.69,4.85-.58,9.71-.03,14.57-.3.13.15.27.3.4.45,0,4.79,0,9.59,0,14.38-.15.13-.3.27-.45.4Z"/>
    <path class="cls-1" d="M680.75,89.52c-4.77,0-9.54,0-14.32,0-.15-.13-.3-.26-.45-.4,0-4.79,0-9.58,0-14.38.13-.15.26-.31.39-.46,4.81,0,9.63,0,14.44,0,.13.15.27.3.4.45,0,4.79,0,9.59,0,14.38-.15.13-.3.27-.45.4Z"/>
    <path class="cls-1" d="M710.35,89.52c-4.77,0-9.54,0-14.32,0-.15-.13-.3-.26-.45-.4,0-4.79,0-9.58,0-14.38.13-.15.26-.31.39-.46,4.81,0,9.63,0,14.44,0,.13.15.27.3.4.45,0,4.79,0,9.59,0,14.38-.15.13-.3.27-.45.4Z"/>
    <path class="cls-1" d="M725.59,74.29c4.08.02,8.17.1,12.25.03,1.87-.04,2.64.57,2.59,2.53-.11,4.08-.03,8.17-.03,12.25-.13.15-.26.31-.39.46-4.79,0-9.59,0-14.38,0-.14-.14-.28-.28-.43-.42,0-4.79,0-9.58,0-14.38.13-.15.26-.31.39-.46Z"/>
    <path class="cls-1" d="M162.79,104.08c-4.9.4-9.8.4-14.69,0-.52-4.41-.15-8.84-.21-13.26-.02-1.11.53-1.66,1.65-1.65,4.42.07,8.85-.31,13.26.21.4,4.9.4,9.8,0,14.69Z"/>
    <path class="cls-1" d="M192.21,104.32c-4.83-.12-9.68.31-14.5-.24-.4-4.9-.4-9.8,0-14.69,4.85-.58,9.71-.03,14.57-.3.13.15.27.3.4.45v14.38c-.16.13-.31.27-.46.4Z"/>
    <path class="cls-1" d="M754.96,104.08c-4.83.54-9.67.11-14.51.24-.15-.13-.3-.26-.45-.4,0-4.79,0-9.58,0-14.38.13-.15.26-.31.39-.46,4.16.02,8.32.04,12.48.06,1.22,0,2.34.07,2.3,1.74-.09,4.4.3,8.8-.22,13.19Z"/>
    <path class="cls-1" d="M147.99,118.89c-4.9.4-9.8.4-14.69,0-.52-4.41-.15-8.84-.21-13.26-.02-1.11.53-1.66,1.65-1.65,4.42.07,8.85-.31,13.26.21.4,4.9.4,9.8,0,14.69Z"/>
    <path class="cls-1" d="M133.18,133.69c-4.9.4-9.8.4-14.69,0-.52-4.41-.15-8.84-.21-13.26-.02-1.11.53-1.66,1.65-1.65,4.42.07,8.85-.31,13.26.21.4,4.9.4,9.8,0,14.69Z"/>
    <path class="cls-1" d="M843.78,192.91c-4.9.4-9.8.4-14.69,0-.4-4.9-.4-9.8,0-14.69,4.41-.52,8.84-.15,13.26-.21,1.11-.02,1.66.53,1.65,1.65-.07,4.42.31,8.85-.21,13.26Z"/>
    <path class="cls-1" d="M488.71,37.75q.02,7.36-7.31,7.36c-1.97,0-3.94-.04-5.91,0-1.33.02-1.95-.54-1.94-1.9.03-3.78.03-7.55,0-11.33-.01-1.33.54-1.95,1.9-1.93,3.78.03,7.55.03,11.33,0,1.33-.01,1.96.54,1.93,1.9-.04,1.97,0,3.94,0,5.91Z"/>
    <path class="cls-1" d="M488.78,7.86c-.27,2.42.95,5.39-.56,6.99-1.63,1.73-4.68.57-7.09.62-2.35.05-5.33,1.02-6.92-.47-1.74-1.62-.57-4.67-.62-7.09-.05-2.35-1.02-5.33.47-6.92,1.62-1.74,4.67-.57,7.09-.62,2.35-.05,5.32-1.01,6.92.47,1.75,1.62.35,4.68.71,7.02Z"/>
    <path class="cls-1" d="M451.76,29.95q7.36-.02,7.36,7.31c0,1.97-.04,3.94,0,5.91.02,1.34-.55,1.94-1.9,1.93-3.78-.03-7.55-.03-11.33,0-1.33.01-1.94-.55-1.93-1.91.03-3.78.03-7.55,0-11.33-.01-1.33.55-1.95,1.91-1.93,1.97.04,3.94,0,5.91,0Z"/>
    <path class="cls-1" d="M421.96,29.94c1.81,0,3.61.03,5.42-.01,1.39-.03,2.14.44,2.13,1.97-.05,3.78-.04,7.55,0,11.33.01,1.38-.65,1.88-1.96,1.87-3.78-.03-7.55-.03-11.33,0-1.38.01-1.88-.65-1.87-1.96.03-3.78.03-7.55,0-11.33-.01-1.38.65-1.9,1.96-1.87,1.89.03,3.78,0,5.67,0Z"/>
    <path class="cls-1" d="M392.37,29.88c2.34.37,5.4-1.04,7.02.71,1.48,1.6.52,4.57.47,6.92-.05,2.42,1.12,5.47-.62,7.09-1.6,1.48-4.57.52-6.92.47-2.42-.05-5.47,1.12-7.09-.62-1.48-1.6-.52-4.57-.47-6.92.05-2.42-1.12-5.46.62-7.09,1.6-1.51,4.57-.29,6.99-.56Z"/>
    <path class="cls-1" d="M362.71,29.95c1.89,0,3.78.03,5.67,0,1.36-.03,1.92.59,1.91,1.93-.03,3.78-.03,7.55,0,11.33.01,1.36-.6,1.92-1.93,1.9-3.78-.03-7.55-.03-11.33,0-1.36.01-1.92-.6-1.9-1.93.03-3.78.03-7.55,0-11.33-.01-1.36.6-1.93,1.93-1.9,1.89.04,3.78,0,5.67,0Z"/>
    <path class="cls-1" d="M340.67,37.53c0,1.89-.03,3.78,0,5.67.03,1.36-.59,1.92-1.93,1.91-3.78-.03-7.55-.03-11.33,0-1.36.01-1.92-.6-1.91-1.93.03-3.78.03-7.55,0-11.33-.01-1.36.6-1.92,1.93-1.9,3.78.03,7.55.03,11.33,0,1.36-.01,1.93.6,1.9,1.93-.04,1.89,0,3.78,0,5.67Z"/>
    <path class="cls-1" d="M311.06,37.76q.02,7.35-7.33,7.35c-1.97,0-3.94-.04-5.91,0-1.34.02-1.93-.57-1.92-1.92.03-3.78.03-7.55,0-11.33-.01-1.34.57-1.93,1.92-1.92,3.78.03,7.55.03,11.33,0,1.34-.01,1.94.57,1.92,1.92-.04,1.97,0,3.94,0,5.91Z"/>
    <path class="cls-1" d="M281.44,37.64c0,1.89-.02,3.78,0,5.67.02,1.23-.54,1.79-1.78,1.79-3.86-.02-7.72-.02-11.58,0-1.23,0-1.79-.54-1.79-1.78.02-3.86.02-7.72,0-11.58,0-1.23.54-1.79,1.78-1.79,3.86.02,7.72.02,11.58,0,1.23,0,1.8.54,1.79,1.78-.02,1.97,0,3.94,0,5.91Z"/>
    <path class="cls-1" d="M244.43,29.94c1.72,0,3.45.07,5.17-.02,1.74-.09,2.3.69,2.27,2.34-.07,3.53-.08,7.06,0,10.59.04,1.73-.69,2.3-2.35,2.27-3.53-.07-7.06-.08-10.59,0-1.73.04-2.3-.69-2.27-2.35.07-3.53.08-7.06,0-10.59-.04-1.73.69-2.34,2.35-2.27,1.8.08,3.61.02,5.42.02Z"/>
    <path class="cls-1" d="M591.97,8.09c0-7.77,0-7.84,7.31-7.74,2.5.03,5.66-1.14,7.34.62,1.56,1.63.49,4.71.51,7.15.07,7.38.02,7.44-7.29,7.35-2.5-.03-5.65,1.14-7.34-.62-1.57-1.64-.31-4.72-.53-6.76Z"/>
    <path class="cls-1" d="M547.93,7.7c0,1.89-.03,3.78.01,5.67.03,1.38-.42,2.16-1.96,2.14-3.78-.05-7.55-.04-11.33,0-1.37.01-1.9-.63-1.89-1.95.03-3.78.03-7.55,0-11.33-.01-1.37.63-1.9,1.95-1.89,3.78.03,7.55.03,11.33,0,1.37-.01,1.91.63,1.88,1.95-.03,1.81,0,3.61,0,5.42Z"/>
    <path class="cls-1" d="M422.05.35c1.89,0,3.78.02,5.67,0,1.24-.02,1.78.56,1.78,1.79-.02,3.86-.02,7.72,0,11.58,0,1.24-.56,1.78-1.79,1.78-3.86-.02-7.72-.02-11.58,0-1.24,0-1.78-.56-1.78-1.79.02-3.86.02-7.72,0-11.58,0-1.24.56-1.79,1.79-1.78,1.97.02,3.94,0,5.91,0Z"/>
    <path class="cls-1" d="M362.77.33c1.81,0,3.61.04,5.42-.01,1.42-.04,2.12.49,2.1,2-.04,3.69-.04,7.39,0,11.09.02,1.42-.49,2.12-2,2.1-3.69-.04-7.39-.04-11.09,0-1.42.02-2.12-.49-2.1-2,.04-3.69.06-7.39,0-11.09-.03-1.64.74-2.16,2.25-2.11,1.8.06,3.61.01,5.42.02Z"/>
    <path class="cls-1" d="M303.66.33c1.56,0,3.13.08,4.68-.02,1.95-.14,2.85.5,2.77,2.62-.13,3.36-.09,6.73-.01,10.1.04,1.73-.48,2.56-2.37,2.51-3.53-.1-7.06-.09-10.59,0-1.75.04-2.29-.72-2.26-2.36.07-3.53.08-7.06,0-10.59-.04-1.75.72-2.32,2.36-2.25,1.8.08,3.61.02,5.42.01Z"/>
    <path class="cls-1" d="M651.33,622.23c-4.9.4-9.8.4-14.69,0-.53-3.91-.22-7.83-.2-11.74,0-2.13-.72-2.87-2.86-2.86-3.91.02-7.84.33-11.74-.2-.54-4.83-.11-9.67-.24-14.51.13-.15.26-.3.4-.45,4.01,0,8.03-.02,12.04.03,1.65.02,2.4-.6,2.37-2.31-.06-3.28-.06-6.55,0-9.83.03-1.7-.71-2.34-2.37-2.31-4.01.06-8.03.03-12.04.03-.14-.14-.28-.28-.43-.42.19-4.84-.3-9.7.27-14.53,3.9-.54,7.83-.22,11.74-.21,2.13,0,2.87-.72,2.86-2.85-.02-3.91-.33-7.84.21-11.74,4.83-.57,9.69-.08,14.53-.27.14.14.29.28.43.41,0,3.94.05,7.88-.05,11.82-.05,1.91.68,2.65,2.6,2.61,3.94-.09,7.88-.04,11.82-.04.13.15.27.3.4.45,0,4.77,0,9.54,0,14.32-.13.15-.26.3-.4.45-4.01,0-8.03.02-12.04-.03-1.65-.02-2.4.6-2.37,2.31.06,3.28.06,6.55,0,9.83-.03,1.7.71,2.34,2.37,2.31,4.01-.06,8.03-.03,12.04-.03.13.15.27.3.4.45-.12,4.83.31,9.68-.24,14.5-3.91.53-7.83.22-11.74.2-2.13,0-2.87.72-2.86,2.86.02,3.91.33,7.84-.2,11.74Z"/>
    <path class="cls-1" d="M607.21,488.86c4.1,0,8.2.05,12.3-.03,1.77-.03,2.52.57,2.47,2.41-.09,3.36.02,6.73-.03,10.09-.03,1.68.67,2.37,2.34,2.34,3.28-.06,6.57.08,9.84-.04,2.07-.08,2.71.73,2.66,2.73-.11,4.02-.03,8.04-.03,12.06-.13.15-.26.3-.4.45-3.85,0-7.7.07-11.55-.05-2.11-.07-2.91.65-2.89,2.82.02,3.92.34,7.86-.21,11.77-4.83.56-9.69.08-14.53.26-.14-.14-.28-.28-.43-.42,0-3.94-.05-7.88.04-11.82.05-1.91-.68-2.65-2.6-2.6-3.94.09-7.88.04-11.82.04-.14-.14-.28-.28-.43-.42.19-4.84-.3-9.7.27-14.53,3.91-.54,7.85-.23,11.77-.21,2.17.01,2.89-.78,2.82-2.89-.12-3.85-.04-7.7-.05-11.55l.45-.4Z"/>
    <path class="cls-1" d="M421.9,341.18c-1.89,0-3.78-.03-5.67,0-1.36.03-1.91-.6-1.9-1.93.03-3.78.03-7.55,0-11.33-.01-1.36.6-1.91,1.94-1.9,3.78.03,7.55.03,11.33,0,1.36-.01,1.91.6,1.9,1.94-.03,3.78-.03,7.55,0,11.33.01,1.36-.6,1.92-1.94,1.9-1.89-.04-3.78,0-5.67,0Z"/>
    <path class="cls-1" d="M459.1,333.38c0,1.89-.03,3.78.01,5.67.03,1.38-.41,2.16-1.95,2.14-3.78-.05-7.55-.04-11.33,0-1.37.01-1.9-.62-1.89-1.94.03-3.78.03-7.55,0-11.33-.01-1.37.62-1.9,1.94-1.89,3.78.03,7.55.03,11.33,0,1.37-.01,1.92.62,1.89,1.94-.04,1.81,0,3.61,0,5.42Z"/>
    <path class="cls-1" d="M429.48,363.34c0,1.89-.02,3.78,0,5.67.02,1.24-.56,1.78-1.79,1.78-3.86-.02-7.72-.02-11.58,0-1.24,0-1.78-.56-1.78-1.79.02-3.86.02-7.72,0-11.58,0-1.24.56-1.78,1.79-1.78,3.86.02,7.72.02,11.58,0,1.24,0,1.79.56,1.78,1.79-.02,1.97,0,3.94,0,5.91Z"/>
    <path class="cls-1" d="M459.1,363.44q.02,7.36-7.31,7.36c-1.97,0-3.94-.04-5.91,0-1.34.02-1.94-.55-1.93-1.9.03-3.78.03-7.55,0-11.33-.01-1.33.55-1.94,1.91-1.93,3.78.03,7.55.03,11.33,0,1.33-.01,1.95.55,1.93,1.91-.04,1.97,0,3.94,0,5.91Z"/>
    <path class="cls-1" d="M488.29,370.8c-4.11,0-8.22-.06-12.32.03-1.8.04-2.49-.62-2.45-2.43.09-3.53.07-7.07.01-10.6-.03-1.58.61-2.2,2.18-2.18,3.61.06,7.23.06,10.84,0,1.59-.03,2.19.62,2.17,2.19-.05,4.19-.01,8.38-.01,12.57-.14.14-.29.28-.43.42Z"/>
    <path class="cls-1" d="M488.35,385.17c-.02-4.79-.04-9.58-.06-14.38.14-.14.29-.28.43-.42,4.08.02,8.17.1,12.25.02,1.88-.04,2.64.58,2.59,2.53-.11,4.08-.03,8.17-.03,12.25l-.43.42c-4.77,0-9.55,0-14.32,0l-.42-.43Z"/>
    <path class="cls-1" d="M459.17,392.75c-.27,2.43.95,5.39-.55,7-1.63,1.74-4.67.57-7.09.62-2.35.05-5.33,1.01-6.92-.46-1.75-1.61-.57-4.67-.62-7.09-.05-2.35-1.01-5.33.46-6.92,1.61-1.75,4.67-.57,7.09-.62,2.35-.05,5.32-1.01,6.93.46,1.76,1.62.35,4.68.72,7.02Z"/>
    <path class="cls-1" d="M488.78,385.6c-.02,4.1-.11,8.2-.02,12.29.04,1.96-.71,2.59-2.59,2.54-3.44-.1-6.89-.08-10.33,0-1.69.04-2.34-.62-2.3-2.31.07-3.44.09-6.89-.01-10.33-.06-1.89.59-2.64,2.54-2.59,4.1.09,8.2,0,12.29-.02.14.14.28.29.42.43Z"/>
    <path class="cls-1" d="M503.53,385.18c4.1.02,8.2.11,12.29.02,1.96-.05,2.59.71,2.54,2.59-.1,3.44-.08,6.89,0,10.33.04,1.69-.62,2.34-2.31,2.3-3.44-.07-6.89-.09-10.33.01-1.89.06-2.64-.59-2.59-2.54.09-4.1,0-8.2-.02-12.29.14-.14.29-.28.43-.42Z"/>
    <path class="cls-1" d="M340.44,429.78c-4.9.4-9.8.4-14.69,0-.52-4.41-.15-8.84-.21-13.26-.02-1.11.53-1.66,1.65-1.65,4.42.07,8.85-.31,13.26.21.4,4.9.4,9.8,0,14.69Z"/>
    <path class="cls-1" d="M480.89,430q-7.35.02-7.35-7.32c0-1.97.04-3.94,0-5.91-.02-1.34.56-1.93,1.91-1.92,3.78.03,7.55.03,11.33,0,1.34-.01,1.93.56,1.92,1.91-.03,3.78-.03,7.55,0,11.33.01,1.34-.56,1.95-1.91,1.92-1.97-.04-3.94,0-5.91,0Z"/>
    <path class="cls-1" d="M517.9,430.01c-4.11,0-8.22-.06-12.32.03-1.8.04-2.49-.62-2.45-2.43.09-3.53.07-7.07.01-10.6-.03-1.58.61-2.2,2.18-2.18,3.61.06,7.23.06,10.84,0,1.59-.03,2.19.62,2.17,2.19-.05,4.19-.01,8.38-.01,12.57-.14.14-.29.28-.43.42Z"/>
    <path class="cls-1" d="M532.77,429.59c0-4.11.06-8.22-.03-12.33-.04-1.8.63-2.49,2.44-2.44,3.53.09,7.07.07,10.6.01,1.58-.03,2.19.62,2.17,2.19-.05,4.19-.01,8.38-.01,12.57-.13.15-.26.3-.4.45-4.79,0-9.58,0-14.38,0-.13-.15-.27-.3-.4-.45Z"/>
    <path class="cls-1" d="M325.64,429.88c.4,4.9.4,9.8,0,14.69-4.41.52-8.84.15-13.27.21-1.12.02-1.65-.54-1.64-1.65,0-3.94,0-7.88,0-11.82,0-1.11.53-1.67,1.64-1.65,4.42.07,8.85-.31,13.27.21Z"/>
    <path class="cls-1" d="M517.96,444.39c-.02-4.79-.04-9.58-.06-14.38.14-.14.29-.28.43-.42,4.81,0,9.62,0,14.44,0,.13.15.27.3.4.45-.21,4.84.3,9.7-.27,14.54-4.83.56-9.69.08-14.53.26-.13-.15-.27-.3-.4-.45Z"/>
    <path class="cls-1" d="M547.94,429.59c4.08.02,8.17.1,12.25.03,1.87-.04,2.64.57,2.59,2.53-.11,4.08-.03,8.17-.03,12.25l-.39.46c-4.84-.2-9.7.3-14.54-.27-.57-4.84-.08-9.69-.27-14.54.13-.15.26-.3.4-.45Z"/>
    <path class="cls-1" d="M517.9,459.62c-4.01,0-8.02-.07-12.03.04-1.95.05-2.83-.52-2.75-2.62.13-3.43.09-6.87.02-10.31-.04-1.7.63-2.32,2.31-2.3,4.17.05,8.34-.02,12.52-.04.13.15.27.3.4.45,0,4.79,0,9.59,0,14.38-.15.13-.3.27-.45.4Z"/>
    <path class="cls-1" d="M562.74,444.39c4.08.02,8.17.1,12.25.03,1.87-.04,2.64.57,2.59,2.53-.11,4.08-.03,8.17-.03,12.25l-.39.46c-4.17-.01-8.33-.07-12.5-.01-1.68.02-2.33-.61-2.3-2.3.06-4.16,0-8.33,0-12.5.13-.15.26-.31.39-.46Z"/>
    <path class="cls-1" d="M532.7,474.43c-4.83-.12-9.68.31-14.5-.24-.58-4.85-.03-9.71-.3-14.57.15-.13.3-.27.45-.4,4.84.21,9.7-.3,14.54.27.56,4.83.08,9.69.26,14.53l-.45.4Z"/>
    <path class="cls-1" d="M577.55,459.2c4.08.02,8.17.1,12.25.03,1.87-.04,2.64.57,2.59,2.53-.11,4.08-.03,8.17-.03,12.25-.13.15-.26.3-.4.45-4.84-.19-9.7.3-14.53-.27-.57-4.83-.08-9.69-.27-14.53l.39-.46Z"/>
    <path class="cls-1" d="M592.35,474c4.17.02,8.35.09,12.52.04,1.69-.02,2.32.62,2.3,2.31-.05,4.17.02,8.35.04,12.52-.15.13-.3.27-.45.4-4.84-.21-9.7.3-14.54-.27-.57-4.84-.08-9.69-.27-14.53.13-.15.26-.3.4-.45Z"/>
    <path class="cls-1" d="M636.76,518.41c4.08.02,8.17.1,12.25.03,1.87-.04,2.64.57,2.59,2.53-.11,4.08-.03,8.17-.03,12.25-.13.15-.26.3-.4.45-4.84-.19-9.7.3-14.54-.27-.57-4.84-.08-9.69-.27-14.53.13-.15.26-.3.4-.45Z"/>
    <path class="cls-1" d="M177.47,548.02c.12-4.83-.31-9.68.24-14.5,4.42-.52,8.85-.14,13.27-.21,1.53-.02,1.66,1.01,1.66,2.16,0,4.19,0,8.38,0,12.56-.13.15-.26.31-.39.46-4.79,0-9.59,0-14.38,0-.13-.15-.27-.3-.4-.45Z"/>
    <path class="cls-1" d="M651.57,533.22c4.08.02,8.17.1,12.25.03,1.87-.04,2.64.57,2.59,2.53-.11,4.08-.03,8.17-.03,12.25-.13.15-.26.3-.4.45-4.79,0-9.58,0-14.38,0-.14-.14-.29-.28-.43-.41,0-4.8,0-9.59,0-14.39.13-.15.26-.3.4-.45Z"/>
    <path class="cls-1" d="M754.96,533.51c.54,4.83.11,9.67.24,14.51-.13.15-.26.3-.4.45-4.79,0-9.58,0-14.38,0-.13-.15-.27-.3-.4-.45.12-4.83-.31-9.68.24-14.5,4.9-.4,9.8-.4,14.69,0Z"/>
    <path class="cls-1" d="M192.64,548.02c4.08.02,8.17.1,12.25.03,1.87-.04,2.64.57,2.59,2.53-.11,4.08-.03,8.17-.03,12.25-.13.15-.26.31-.39.46-4.79,0-9.59,0-14.38,0-.14-.14-.28-.28-.43-.42,0-4.79,0-9.58,0-14.38.13-.15.26-.31.39-.46Z"/>
    <path class="cls-1" d="M666.37,548.02c4.1.02,8.19.11,12.29.02,1.95-.04,2.6.69,2.55,2.58-.1,3.44-.08,6.88-.01,10.32.03,1.67-.58,2.34-2.29,2.32-4.18-.05-8.36.02-12.53.04-.13-.15-.27-.3-.4-.45,0-4.8,0-9.59,0-14.39.13-.15.26-.3.4-.45Z"/>
    <path class="cls-1" d="M725.22,562.82c0-4.08.07-8.17-.04-12.25-.05-1.96.72-2.56,2.59-2.52,4.08.08,8.17,0,12.25-.03.13.15.27.3.4.45,0,4.79,0,9.59,0,14.38-.14.14-.28.29-.41.43-4.79,0-9.59,0-14.38,0-.13-.15-.27-.3-.4-.45Z"/>
    <path class="cls-1" d="M207.44,562.83c4.17.02,8.35.09,12.52.04,1.68-.02,2.34.61,2.31,2.3-.07,3.52-.09,7.04,0,10.55.05,1.87-.77,2.39-2.5,2.36-4.09-.07-8.18-.02-12.27-.02-.15-.13-.31-.26-.46-.39,0-4.79,0-9.59,0-14.38.13-.15.26-.31.39-.46Z"/>
    <path class="cls-1" d="M725.16,578.05c-4.83-.12-9.68.31-14.5-.24-.52-4.39-.13-8.79-.22-13.19-.03-1.68,1.09-1.74,2.31-1.74,4.16-.01,8.32-.04,12.48-.06.13.15.27.3.4.45,0,4.79,0,9.59,0,14.38-.15.13-.3.27-.45.4Z"/>
    <path class="cls-1" d="M207.5,578.06c-.02,4.79-.04,9.59-.06,14.38-.13.15-.26.3-.4.45-4.84-.19-9.7.3-14.53-.27-.57-4.84-.08-9.69-.27-14.53l.42-.43c4.79,0,9.58,0,14.38,0,.15.13.31.26.46.39Z"/>
    <path class="cls-1" d="M680.94,592.62c-4.85.58-9.71.03-14.57.3-.13-.15-.27-.3-.4-.45,0-4.8,0-9.59,0-14.39.13-.15.26-.3.4-.45,4.16.02,8.32.04,12.48.06,1.22,0,2.34.07,2.3,1.74-.09,4.4.3,8.8-.22,13.19Z"/>
    <path class="cls-1" d="M207.44,592.43c4.08.02,8.17.1,12.25.03,1.87-.04,2.64.57,2.59,2.53-.11,4.08-.03,8.17-.03,12.25-.13.15-.26.3-.4.45-4.84-.19-9.7.3-14.53-.27-.57-4.84-.08-9.69-.27-14.54.13-.15.26-.3.4-.45Z"/>
    <path class="cls-1" d="M222.25,607.24c4.08.02,8.17.1,12.25.03,1.87-.04,2.64.57,2.59,2.53-.11,4.08-.03,8.17-.03,12.25-.13.15-.26.31-.39.46-4.84-.2-9.7.3-14.54-.27-.57-4.84-.08-9.69-.27-14.54.13-.15.26-.3.4-.45Z"/>
    <path class="cls-1" d="M237.05,622.04c4.08.02,8.17.1,12.25.03,1.87-.04,2.64.57,2.59,2.53-.11,4.08-.03,8.17-.03,12.25-.13.15-.26.31-.39.46-4.17-.01-8.33-.07-12.5-.01-1.68.02-2.33-.61-2.3-2.3.06-4.16,0-8.33,0-12.5.13-.15.26-.31.39-.46Z"/>
    <path class="cls-1" d="M251.85,636.85c4.08.02,8.17.1,12.25.03,1.87-.04,2.64.57,2.59,2.53-.11,4.08-.03,8.17-.03,12.25-.13.15-.26.31-.39.46-4.84-.2-9.7.3-14.54-.27-.57-4.84-.08-9.69-.27-14.53.13-.15.26-.31.39-.46Z"/>
    <path class="cls-1" d="M266.66,651.65c4.08.02,8.17.1,12.25.03,1.87-.04,2.64.57,2.59,2.53-.11,4.08-.03,8.17-.03,12.25-.13.15-.26.31-.39.46-4.17-.01-8.33-.07-12.5-.01-1.68.02-2.33-.61-2.3-2.3.06-4.16,0-8.33,0-12.5.13-.15.26-.31.39-.46Z"/>
    <path class="cls-1" d="M281.46,666.45c4.08.02,8.17.1,12.25.03,1.87-.04,2.64.57,2.59,2.53-.11,4.08-.03,8.17-.03,12.25-.13.15-.26.31-.39.46-4.84-.2-9.7.3-14.54-.27-.57-4.83-.08-9.69-.27-14.53.13-.15.26-.31.39-.46Z"/>
    <path class="cls-1" d="M296.27,681.26c4.17.02,8.35.09,12.52.04,1.68-.02,2.34.61,2.31,2.3-.07,3.52-.09,7.04,0,10.55.05,1.87-.77,2.39-2.5,2.36-4.09-.07-8.18-.02-12.27-.02-.15-.13-.3-.26-.45-.4,0-4.79,0-9.58,0-14.38.13-.15.26-.31.39-.46Z"/>
    <path class="cls-1" d="M340.25,696.49c-4.11,0-8.22-.06-12.32.03-1.8.04-2.49-.62-2.45-2.43.09-3.53.07-7.07.01-10.6-.03-1.58.61-2.2,2.18-2.18,3.61.06,7.23.06,10.85,0,1.59-.03,2.19.62,2.17,2.19-.05,4.19-.01,8.38-.01,12.57-.14.14-.29.28-.43.42Z"/>
    <path class="cls-1" d="M296.32,696.49c-.02,4.79-.04,9.59-.06,14.38-.14.14-.29.28-.43.42-4.77,0-9.55,0-14.32,0l-.46-.39c.21-4.84-.3-9.7.27-14.54,4.84-.57,9.69-.08,14.53-.27.15.13.3.26.45.4Z"/>
    <path class="cls-1" d="M340.68,696.07c4.08.02,8.17.1,12.25.02,1.88-.04,2.64.58,2.58,2.53-.11,4.08-.03,8.17-.03,12.25-.14.14-.29.28-.43.42-4.77,0-9.55,0-14.32,0-.14-.14-.28-.29-.42-.43-.02-4.79-.04-9.58-.06-14.38.14-.14.29-.28.43-.42Z"/>
    <path class="cls-1" d="M281.52,711.29c-.02,4.08-.1,8.17-.03,12.25.04,1.87-.57,2.64-2.53,2.59-4.08-.11-8.17-.03-12.25-.03l-.46-.39c.01-4.17.07-8.33.01-12.5-.02-1.68.61-2.33,2.3-2.3,4.16.06,8.33,0,12.5,0l.46.39Z"/>
    <path class="cls-1" d="M310.64,726.1c-4.08,0-8.17-.07-12.25.03-1.95.05-2.56-.72-2.53-2.59.08-4.08,0-8.17-.03-12.25.14-.14.29-.28.43-.42,4.08.02,8.17.1,12.25.02,1.88-.04,2.64.58,2.59,2.53-.11,4.08-.03,8.17-.03,12.25-.14.14-.29.28-.43.42Z"/>
    <path class="cls-1" d="M325.51,725.67c0-4.08.07-8.17-.03-12.25-.05-1.96.72-2.56,2.59-2.53,4.08.08,8.17,0,12.25-.03.14.14.28.29.42.43-.02,4.08-.1,8.17-.02,12.25.04,1.88-.58,2.64-2.53,2.59-4.08-.11-8.17-.03-12.25-.03-.14-.14-.28-.29-.42-.43Z"/>
    <path class="cls-1" d="M355.49,710.87c4.08.02,8.17.1,12.25.02,1.88-.04,2.64.58,2.58,2.53-.11,4.08-.03,8.17-.03,12.25-.14.14-.29.28-.43.42-4.08,0-8.17-.07-12.25.03-1.95.05-2.56-.72-2.53-2.59.08-4.08,0-8.17-.03-12.25.14-.14.29-.28.43-.42Z"/>
    <path class="cls-1" d="M384.72,725.67c0-4.11.06-8.22-.03-12.32-.04-1.8.62-2.49,2.43-2.45,3.53.09,7.07.07,10.6.01,1.58-.03,2.2.61,2.18,2.18-.06,3.61-.06,7.23,0,10.84.03,1.59-.62,2.19-2.19,2.17-4.19-.05-8.38-.01-12.57-.01-.14-.14-.28-.29-.42-.43Z"/>
    <path class="cls-1" d="M429.08,726.1c-4.11,0-8.22-.06-12.32.03-1.8.04-2.49-.62-2.45-2.43.09-3.53.07-7.07.01-10.6-.03-1.58.61-2.2,2.18-2.18,3.61.06,7.23.06,10.85,0,1.59-.03,2.19.62,2.17,2.19-.05,4.19-.01,8.38-.01,12.57-.14.14-.29.28-.43.42Z"/>
    <path class="cls-1" d="M503.16,725.67c0-4.11.06-8.22-.03-12.32-.04-1.8.62-2.49,2.43-2.45,3.53.09,7.07.07,10.6.01,1.58-.03,2.2.61,2.18,2.18-.06,3.61-.06,7.23,0,10.84.03,1.59-.62,2.19-2.19,2.17-4.19-.05-8.38-.01-12.57-.01-.14-.14-.28-.29-.42-.43Z"/>
    <path class="cls-1" d="M547.51,726.1c-4.11,0-8.22-.06-12.32.03-1.8.04-2.49-.62-2.45-2.43.09-3.53.07-7.07.01-10.6-.03-1.58.61-2.2,2.18-2.18,3.61.06,7.23.06,10.84,0,1.59-.03,2.19.62,2.17,2.19-.05,4.19-.01,8.38-.01,12.57-.14.14-.29.28-.43.42Z"/>
    <path class="cls-1" d="M266.42,740.66c-4.9.4-9.8.4-14.69,0-.54-4.83-.11-9.67-.24-14.51.13-.15.26-.3.4-.45,4.79,0,9.58,0,14.38,0l.46.39c-.26,4.85.28,9.72-.3,14.57Z"/>
    <path class="cls-1" d="M325.93,726.1c-.02,4.79-.03,9.59-.05,14.38-.14.14-.29.28-.43.42-4.77,0-9.55,0-14.32,0-.14-.14-.28-.29-.42-.43-.02-4.79-.04-9.58-.06-14.38.14-.14.29-.28.43-.42,4.81,0,9.62,0,14.43,0,.14.14.28.29.42.43Z"/>
    <path class="cls-1" d="M370.29,725.67c4.81,0,9.62,0,14.43,0,.14.14.28.29.42.43-.02,4.79-.03,9.59-.05,14.38-.14.14-.29.28-.43.42-4.77,0-9.55,0-14.32,0-.14-.14-.28-.29-.42-.43-.02-4.79-.04-9.58-.06-14.38.14-.14.29-.28.43-.42Z"/>
    <path class="cls-1" d="M429.51,725.67c4.08.02,8.17.1,12.25.02,1.88-.04,2.64.58,2.58,2.53-.11,4.08-.03,8.17-.03,12.25-.14.14-.29.28-.43.42-4.77,0-9.55,0-14.32,0-.14-.14-.28-.29-.42-.43-.02-4.79-.04-9.58-.06-14.38.14-.14.29-.28.43-.42Z"/>
    <path class="cls-1" d="M503.58,726.1c-.02,4.79-.03,9.59-.05,14.38-.14.14-.29.28-.43.42-4.77,0-9.55,0-14.32,0-.14-.14-.28-.29-.42-.43,0-4.08.07-8.17-.03-12.25-.05-1.96.72-2.56,2.59-2.53,4.08.08,8.17,0,12.25-.03.14.14.28.29.42.43Z"/>
    <path class="cls-1" d="M562.8,726.1c-.02,4.79-.03,9.59-.05,14.38-.14.14-.29.28-.43.42-4.77,0-9.55,0-14.32,0-.14-.14-.28-.29-.42-.43-.02-4.79-.04-9.58-.06-14.38.14-.14.29-.28.43-.42,4.81,0,9.62,0,14.43,0,.14.14.28.29.42.43Z"/>
    <path class="cls-1" d="M266.53,755.47c-.4-4.9-.4-9.8,0-14.69,4.41-.52,8.84-.15,13.27-.21,1.12-.02,1.65.54,1.65,1.65,0,3.94,0,7.88,0,11.82,0,1.11-.53,1.67-1.64,1.65-4.42-.07-8.85.31-13.27-.21Z"/>
    <path class="cls-1" d="M311.13,740.9c-.02,4.1-.11,8.2-.02,12.29.05,1.96-.71,2.59-2.59,2.54-3.44-.1-6.89-.08-10.33,0-1.69.04-2.34-.62-2.3-2.31.07-3.44.09-6.89-.01-10.33-.06-1.89.59-2.64,2.54-2.59,4.1.09,8.2,0,12.29-.02.14.14.28.29.42.43Z"/>
    <path class="cls-1" d="M325.88,740.48c4.1.02,8.2.11,12.29.02,1.96-.04,2.59.71,2.54,2.6-.1,3.44-.08,6.89,0,10.33.04,1.69-.62,2.34-2.31,2.3-3.44-.07-6.89-.09-10.33.01-1.89.06-2.64-.58-2.59-2.54.09-4.1,0-8.2-.02-12.29.14-.14.29-.28.43-.42Z"/>
    <path class="cls-1" d="M370.34,740.9c-.02,4.1-.11,8.2-.02,12.29.05,1.96-.71,2.59-2.59,2.54-3.44-.1-6.89-.08-10.33,0-1.69.04-2.34-.62-2.3-2.31.07-3.44.09-6.89-.01-10.33-.06-1.89.59-2.64,2.54-2.59,4.1.09,8.2,0,12.29-.02.14.14.28.29.42.43Z"/>
    <path class="cls-1" d="M385.09,740.48c4.1.02,8.2.11,12.29.02,1.96-.05,2.59.71,2.54,2.59-.1,3.44-.08,6.89,0,10.33.04,1.69-.62,2.34-2.31,2.3-3.44-.07-6.89-.09-10.33.01-1.89.06-2.64-.58-2.59-2.54.09-4.1,0-8.2-.02-12.29.14-.14.29-.28.43-.42Z"/>
    <path class="cls-1" d="M429.56,740.9c-.02,4.1-.11,8.2-.02,12.29.05,1.96-.71,2.59-2.59,2.54-3.44-.1-6.89-.08-10.33,0-1.69.04-2.34-.62-2.3-2.31.07-3.44.09-6.89-.01-10.33-.06-1.89.59-2.64,2.54-2.59,4.1.09,8.2,0,12.29-.02.14.14.28.29.42.43Z"/>
    <path class="cls-1" d="M444.31,740.48c4.1.02,8.2.11,12.29.02,1.96-.04,2.59.71,2.54,2.6-.1,3.44-.08,6.89,0,10.33.04,1.69-.62,2.34-2.31,2.3-3.44-.07-6.89-.09-10.33.01-1.89.06-2.64-.58-2.59-2.54.09-4.1,0-8.2-.02-12.29.14-.14.29-.28.43-.42Z"/>
    <path class="cls-1" d="M488.78,740.9c-.02,4.1-.11,8.2-.02,12.29.05,1.96-.71,2.59-2.59,2.54-3.44-.1-6.89-.08-10.33,0-1.69.04-2.34-.62-2.3-2.31.07-3.44.09-6.89-.01-10.33-.06-1.89.59-2.64,2.54-2.59,4.1.09,8.2,0,12.29-.02.14.14.28.29.42.43Z"/>
    <path class="cls-1" d="M503.53,740.48c4.1.02,8.2.11,12.29.02,1.96-.05,2.59.71,2.54,2.59-.1,3.44-.08,6.89,0,10.33.04,1.69-.62,2.34-2.31,2.3-3.44-.07-6.89-.09-10.33.01-1.89.06-2.64-.59-2.59-2.54.09-4.1,0-8.2-.02-12.29.14-.14.29-.28.43-.42Z"/>
    <path class="cls-1" d="M547.99,740.9c-.02,4.1-.11,8.2-.02,12.29.05,1.96-.71,2.59-2.6,2.54-3.44-.1-6.89-.08-10.33,0-1.69.04-2.34-.62-2.3-2.31.07-3.44.09-6.89-.01-10.33-.06-1.89.59-2.64,2.54-2.59,4.1.09,8.2,0,12.29-.02.14.14.28.29.42.43Z"/>
    <path class="cls-1" d="M562.74,740.48c4.1.02,8.2.11,12.29.02,1.96-.05,2.59.71,2.54,2.6-.1,3.44-.08,6.89,0,10.33.04,1.69-.62,2.34-2.31,2.3-3.44-.07-6.89-.09-10.33,0-1.89.06-2.64-.58-2.59-2.54.09-4.1,0-8.2-.02-12.29.14-.14.29-.28.43-.42Z"/>
    <path class="cls-1" d="M325.45,784.94c.02-4.1.11-8.2.02-12.29-.05-1.96.71-2.59,2.6-2.54,3.44.1,6.89.08,10.33,0,1.69-.04,2.34.62,2.3,2.31-.07,3.44-.09,6.89.01,10.33.06,1.89-.59,2.64-2.54,2.59-4.1-.09-8.2,0-12.29.02-.14-.14-.28-.29-.42-.43Z"/>
    <path class="cls-1" d="M399.89,777.77c0,1.81-.03,3.61.01,5.42.03,1.39-.44,2.14-1.97,2.13-3.78-.05-7.55-.04-11.33,0-1.38.01-1.88-.65-1.87-1.96.03-3.78.03-7.55,0-11.33-.01-1.38.65-1.88,1.96-1.87,3.78.03,7.55.03,11.33,0,1.38-.01,1.9.65,1.87,1.96-.03,1.89,0,3.78,0,5.67Z"/>
    <path class="cls-1" d="M459.09,777.85c0,1.89-.02,3.78,0,5.67.02,1.23-.54,1.79-1.78,1.79-3.86-.02-7.72-.02-11.58,0-1.23,0-1.79-.54-1.79-1.78.02-3.86.02-7.72,0-11.58,0-1.23.54-1.79,1.78-1.79,3.86.02,7.72.02,11.58,0,1.23,0,1.8.54,1.79,1.78-.02,1.97,0,3.94,0,5.91Z"/>
    <path class="cls-1" d="M510.96,785.31c-1.89,0-3.78-.03-5.67.01-1.38.03-2.16-.42-2.14-1.96.05-3.78.04-7.55,0-11.33-.01-1.37.63-1.9,1.95-1.89,3.78.03,7.55.03,11.33,0,1.37-.01,1.9.63,1.89,1.95-.03,3.78-.03,7.55,0,11.33.01,1.37-.63,1.91-1.95,1.88-1.81-.03-3.61,0-5.42,0Z"/>
    <path class="cls-1" d="M577.6,777.66c-.27,2.43.95,5.39-.56,7-1.63,1.74-4.67.57-7.09.62-2.35.05-5.33,1.01-6.92-.46-1.74-1.61-.57-4.67-.62-7.09-.05-2.35-1.01-5.33.46-6.92,1.61-1.74,4.67-.57,7.09-.62,2.35-.05,5.32-1.01,6.92.46,1.76,1.62.35,4.68.72,7.02Z"/>
    <path class="cls-1" d="M192.51,651.84c-.54-4.83-.11-9.67-.24-14.51.13-.15.26-.3.4-.45,4.84.19,9.7-.3,14.53.27.57,4.84.08,9.69.27,14.53-.15.13-.3.27-.45.4-4.83-.12-9.68.31-14.5-.24Z"/>
    <path class="cls-1" d="M177.7,666.64c-.52-4.41-.15-8.84-.21-13.26-.02-1.11.53-1.66,1.65-1.65,4.42.07,8.85-.31,13.26.21.52,4.41.15,8.84.21,13.26.02,1.11-.53,1.66-1.65,1.65-4.42-.07-8.85.31-13.26-.21Z"/>
    <path class="cls-1" d="M221.82,666.88c-4.08,0-8.17-.07-12.25.04-1.96.05-2.56-.72-2.52-2.59.08-4.08,0-8.17-.03-12.25.15-.13.3-.27.45-.4,4.17.01,8.33.07,12.5.01,1.68-.02,2.33.61,2.3,2.3-.06,4.16,0,8.33,0,12.5-.15.13-.3.27-.45.4Z"/>
    <path class="cls-1" d="M221.88,681.26c-.02-4.79-.04-9.58-.06-14.38.15-.13.3-.27.45-.4,4.84.21,9.7-.3,14.54.27.41,4.9.41,9.79,0,14.69-4.83.56-9.69.08-14.53.26-.13-.15-.27-.3-.4-.45Z"/>
    <path class="cls-1" d="M221.82,696.49c-4.01,0-8.02-.07-12.03.04-1.95.05-2.83-.52-2.75-2.62.13-3.43.09-6.87.02-10.31-.04-1.7.63-2.32,2.31-2.3,4.17.05,8.34-.02,12.52-.04.13.15.27.3.4.45,0,4.79,0,9.59,0,14.38-.15.13-.3.27-.45.4Z"/>
    <path class="cls-1" d="M236.62,711.29c-4.83-.12-9.68.31-14.5-.24-.58-4.85-.03-9.71-.3-14.57.15-.13.3-.27.45-.4,4.84.2,9.7-.3,14.54.27.57,4.83.08,9.69.27,14.53-.15.13-.3.27-.45.4Z"/>
    <path class="cls-1" d="M162.9,622.23c-.54-4.83-.11-9.67-.24-14.51.13-.15.26-.3.4-.45,4.84.19,9.7-.3,14.54.27.56,4.83.08,9.69.26,14.53-.15.13-.3.27-.45.4-4.83-.12-9.68.31-14.5-.24Z"/>
    <path class="cls-1" d="M148.1,637.03c-.4-4.9-.4-9.8,0-14.69,4.9-.4,9.8-.4,14.69,0,.52,4.41.15,8.84.21,13.26.02,1.11-.53,1.66-1.65,1.65-4.42-.07-8.85.31-13.26-.21Z"/>
    <path class="cls-1" d="M192.27,637.33c-4.17-.02-8.35-.09-12.52-.04-1.69.02-2.32-.62-2.3-2.31.05-4.17-.02-8.35-.04-12.52.15-.13.3-.27.45-.4,4.84.2,9.7-.3,14.54.27.57,4.84.08,9.69.27,14.54-.13.15-.26.3-.4.45Z"/>
    <path class="cls-1" d="M770,607.72c-.12,4.83.31,9.68-.24,14.5-4.9.4-9.8.4-14.69,0-.54-4.83-.11-9.67-.24-14.51.13-.15.26-.31.39-.46,4.79,0,9.59,0,14.38,0,.13.15.27.3.4.45Z"/>
    <path class="cls-1" d="M251.49,726.15c-4.17-.02-8.35-.09-12.52-.04-1.69.02-2.32-.62-2.3-2.31.05-4.17-.02-8.35-.04-12.52.15-.13.3-.27.45-.4,4.17.01,8.33.07,12.5.01,1.68-.02,2.33.61,2.3,2.3-.06,4.17,0,8.33,0,12.5-.13.15-.26.3-.4.45Z"/>
    <path class="cls-1" d="M222.01,104.08c-4.83.54-9.67.11-14.51.24-.15-.13-.3-.26-.45-.4,0-4.79,0-9.58,0-14.38.14-.14.28-.29.41-.43,4.8,0,9.59,0,14.39,0,.15.13.3.26.45.4-.26,4.85.28,9.72-.3,14.57Z"/>
    <path class="cls-1" d="M251.62,104.08c-4.9.4-9.8.4-14.69,0-.58-4.85-.03-9.71-.3-14.57.15-.13.3-.27.45-.4,4.8,0,9.59,0,14.39,0,.15.13.3.26.45.4-.26,4.85.28,9.72-.3,14.57Z"/>
    <path class="cls-1" d="M666.13,104.08c-4.9.4-9.8.4-14.69,0-.58-4.85-.03-9.71-.3-14.57.15-.13.3-.27.45-.4,4.8,0,9.59,0,14.39,0,.15.13.3.26.45.4-.26,4.85.28,9.72-.3,14.57Z"/>
    <path class="cls-1" d="M695.74,104.08c-4.9.4-9.8.4-14.69,0-.58-4.85-.03-9.71-.3-14.57.15-.13.3-.27.45-.4,4.8,0,9.59,0,14.39,0,.15.13.3.26.45.4-.26,4.85.28,9.72-.3,14.57Z"/>
    <path class="cls-1" d="M725.16,104.32c-4.83-.13-9.68.31-14.5-.24-.58-4.85-.03-9.71-.3-14.57.15-.13.3-.27.45-.4,4.8,0,9.59,0,14.39,0,.14.14.28.28.43.42,0,4.79,0,9.59,0,14.38-.15.13-.3.27-.45.4Z"/>
    <path class="cls-1" d="M207.2,118.89c-4.9.4-9.8.4-14.69,0-.58-4.85-.03-9.71-.3-14.57.15-.13.3-.27.45-.4,4.8,0,9.59,0,14.39,0,.15.13.3.26.45.4-.26,4.85.28,9.72-.3,14.57Z"/>
    <path class="cls-1" d="M740.15,118.89c-4.9.4-9.8.4-14.69,0-.58-4.85-.03-9.71-.3-14.57.15-.13.3-.27.45-.4,4.8,0,9.59,0,14.39,0,.15.13.3.26.45.4-.26,4.85.28,9.72-.3,14.57Z"/>
    <path class="cls-1" d="M547.51,489.23c-4.83-.12-9.68.31-14.5-.24-.58-4.85-.03-9.71-.3-14.57.15-.13.3-.27.45-.4,4.17.01,8.33.07,12.5.01,1.68-.02,2.33.61,2.3,2.3-.06,4.16,0,8.33,0,12.5-.15.13-.3.27-.45.4Z"/>
    <path class="cls-1" d="M562.31,504.03c-4.83-.12-9.68.31-14.5-.24-.58-4.85-.03-9.71-.3-14.57.15-.13.3-.27.45-.4,4.84.21,9.7-.3,14.54.27.56,4.83.08,9.69.26,14.53-.15.13-.3.27-.45.4Z"/>
    <path class="cls-1" d="M577.12,518.84c-4.83-.12-9.68.31-14.5-.24-.58-4.85-.03-9.71-.3-14.57.15-.13.3-.27.45-.4,4.84.2,9.7-.3,14.54.27.57,4.83.08,9.69.27,14.53-.15.13-.3.27-.45.4Z"/>
    <path class="cls-1" d="M133.18,548.21c-4.9.4-9.8.4-14.69,0-.4-4.9-.4-9.8,0-14.69,4.9-.4,9.8-.4,14.69,0,.4,4.9.4,9.8,0,14.69Z"/>
    <path class="cls-1" d="M162.79,533.51c.54,4.83.11,9.67.24,14.51-.13.15-.26.3-.4.45-4.79,0-9.58,0-14.38,0-.13-.15-.27-.3-.4-.45.12-4.83-.31-9.68.24-14.5,4.9-.4,9.8-.4,14.69,0Z"/>
    <path class="cls-1" d="M591.92,533.64c-4.83-.12-9.68.31-14.5-.24-.58-4.85-.03-9.71-.3-14.57.15-.13.3-.27.45-.4,4.8,0,9.59,0,14.39,0,.14.14.28.28.43.42,0,4.79,0,9.59,0,14.38-.15.13-.3.27-.45.4Z"/>
    <path class="cls-1" d="M784.56,533.51c.54,4.83.11,9.67.24,14.51-.13.15-.26.3-.4.45-4.79,0-9.58,0-14.38,0-.13-.15-.27-.3-.4-.45.12-4.83-.31-9.68.24-14.5,4.9-.4,9.8-.4,14.69,0Z"/>
    <path class="cls-1" d="M814.17,548.21c-4.9.4-9.8.4-14.69,0-.4-4.9-.4-9.8,0-14.69,4.9-.4,9.8-.4,14.69,0,.4,4.9.4,9.8,0,14.69Z"/>
    <path class="cls-1" d="M147.8,563.25c-4.83-.12-9.68.31-14.5-.24-.4-4.9-.4-9.8,0-14.69,4.85-.58,9.71-.03,14.57-.3.13.15.27.3.4.45,0,4.79,0,9.59,0,14.38-.15.13-.3.27-.45.4Z"/>
    <path class="cls-1" d="M147.86,577.63c-.02-4.79-.04-9.58-.06-14.38.15-.13.3-.27.45-.4,3.94,0,7.89-.05,11.83.05,1.92.05,2.65-.68,2.6-2.6-.09-3.94-.04-7.88-.04-11.83.13-.15.26-.3.4-.45,4.81,0,9.63,0,14.44,0,.13.15.27.3.4.45,0,3.94.05,7.89-.05,11.83-.05,1.91.68,2.65,2.6,2.6,3.94-.09,7.88-.04,11.83-.04.14.14.28.28.43.42v14.39c-.14.14-.28.28-.42.43-3.85,0-7.71.07-11.55-.06-2.11-.07-2.91.64-2.9,2.82.02,3.92.34,7.86-.21,11.77-4.83.56-9.69.08-14.53.26-.14-.14-.28-.28-.43-.42,0-3.94-.05-7.88.04-11.82.05-1.91-.68-2.65-2.6-2.6-3.94.09-7.88.04-11.82.04-.13-.15-.27-.3-.4-.45Z"/>
    <path class="cls-1" d="M591.98,548.02c-.02-4.79-.04-9.58-.06-14.38.15-.13.3-.27.45-.4,4.8,0,9.59,0,14.39,0,.14.14.28.28.43.42-.21,4.84.3,9.7-.27,14.54-4.83.56-9.69.08-14.53.26-.13-.15-.27-.3-.4-.45Z"/>
    <path class="cls-1" d="M591.92,563.25c-4.83-.12-9.68.31-14.5-.24-.4-4.9-.4-9.8,0-14.69,4.85-.58,9.71-.03,14.57-.3.13.15.27.3.4.45,0,4.79,0,9.59,0,14.38-.15.13-.3.27-.45.4Z"/>
    <path class="cls-1" d="M784.8,563.31c0,4.77,0,9.54,0,14.32l-.39.46c-3.94,0-7.88.05-11.82-.05-1.91-.05-2.65.68-2.61,2.6.09,3.94.04,7.88.04,11.82-.14.14-.28.28-.42.43-4.79,0-9.58,0-14.38,0-.14-.14-.28-.28-.43-.42,0-3.94-.05-7.88.04-11.82.04-1.91-.68-2.65-2.6-2.6-3.94.09-7.88.04-11.82.04-.14-.14-.28-.28-.43-.42,0-4.79,0-9.58,0-14.38.14-.14.28-.29.41-.43,3.94,0,7.89-.05,11.83.05,1.91.05,2.65-.68,2.6-2.6-.09-3.94-.04-7.88-.04-11.83.13-.15.26-.3.4-.45,4.81,0,9.63,0,14.44,0,.13.15.27.3.4.45,0,3.94.05,7.88-.05,11.82-.05,1.91.68,2.65,2.6,2.61,3.94-.09,7.88-.04,11.82-.04.13.15.27.3.4.45Z"/>
    <path class="cls-1" d="M799.37,563.01c-4.85.58-9.71.03-14.57.3-.13-.15-.27-.3-.4-.45,0-4.8,0-9.59,0-14.39.13-.15.26-.3.4-.45,4.85.26,9.72-.28,14.57.3.4,4.9.4,9.8,0,14.69Z"/>
    <path class="cls-1" d="M147.8,592.86c-4.83-.12-9.68.31-14.5-.24-.4-4.9-.4-9.8,0-14.69,4.85-.58,9.71-.03,14.57-.3.13.15.27.3.4.45,0,4.79,0,9.59,0,14.38-.15.13-.3.27-.45.4Z"/>
    <path class="cls-1" d="M606.72,578.05c-4.83-.12-9.68.31-14.5-.24-.58-4.85-.03-9.71-.3-14.57.15-.13.3-.27.45-.4,4.84.2,9.7-.3,14.54.27.57,4.83.08,9.69.27,14.53-.15.13-.3.27-.45.4Z"/>
    <path class="cls-1" d="M799.37,592.62c-4.83.54-9.67.11-14.51.24-.15-.13-.3-.26-.45-.4,0-4.79,0-9.58,0-14.38l.39-.46c4.85.26,9.72-.28,14.57.3.4,4.9.4,9.8,0,14.69Z"/>
    <path class="cls-1" d="M621.59,592.92c-4.85-.26-9.72.28-14.56-.3-.58-4.85-.03-9.71-.3-14.57.15-.13.3-.27.45-.4,4.8,0,9.59,0,14.39,0,.14.14.28.28.43.42,0,4.8,0,9.59,0,14.39-.13.15-.26.3-.4.45Z"/>
    <path class="cls-1" d="M739.96,592.86c-4.83-.12-9.68.31-14.5-.24-.58-4.85-.03-9.71-.3-14.57.15-.13.3-.27.45-.4,4.8,0,9.59,0,14.39,0,.14.14.28.28.43.42,0,4.79,0,9.59,0,14.38-.15.13-.3.27-.45.4Z"/>
    <path class="cls-1" d="M162.66,607.72c-4.85-.26-9.72.28-14.56-.3-.58-4.85-.03-9.71-.3-14.57.15-.13.3-.27.45-.4,4.8,0,9.59,0,14.39,0,.14.14.28.28.43.42,0,4.8,0,9.59,0,14.39-.13.15-.26.3-.4.45Z"/>
    <path class="cls-1" d="M754.83,607.72c-4.85-.26-9.72.28-14.56-.3-.58-4.85-.03-9.71-.3-14.57.15-.13.3-.27.45-.4,4.8,0,9.59,0,14.39,0,.14.14.28.28.43.42,0,4.79,0,9.59,0,14.38-.13.15-.26.31-.39.46Z"/>
    <path class="cls-1" d="M784.56,607.43c-4.85.58-9.71.03-14.57.3-.13-.15-.27-.3-.4-.45,0-4.8,0-9.59,0-14.39.14-.14.28-.28.42-.43,4.8,0,9.59,0,14.39,0,.15.13.3.26.45.4-.26,4.85.28,9.72-.3,14.57Z"/>
    <path class="cls-1" d="M621.83,548.21c-.4-4.9-.4-9.8,0-14.69,4.9-.4,9.8-.4,14.69,0,.4,4.9.4,9.8,0,14.69-4.9.4-9.8.4-14.69,0Z"/>
    <path class="cls-1" d="M607.02,563.01c-.4-4.9-.4-9.8,0-14.69,4.9-.4,9.8-.4,14.69,0,.4,4.9.4,9.8,0,14.69-4.9.4-9.8.4-14.69,0Z"/>
    <path class="cls-1" d="M577.42,503.8c-.4-4.9-.4-9.8,0-14.69,4.9-.4,9.8-.4,14.69,0,.4,4.9.4,9.8,0,14.69-4.9.4-9.8.4-14.69,0Z"/>
    <path class="cls-1" d="M547.7,444.69c.52,4.41.15,8.84.21,13.26.02,1.11-.53,1.66-1.65,1.65-4.42-.07-8.85.31-13.26-.21-.4-4.9-.4-9.8,0-14.69,4.9-.4,9.8-.4,14.69,0Z"/>
    <path class="cls-1" d="M577.31,488.99c-4.9.4-9.8.4-14.69,0-.52-4.41-.15-8.84-.21-13.26-.02-1.11.53-1.66,1.65-1.65,4.42.07,8.85-.31,13.26.21.4,4.9.4,9.8,0,14.69Z"/>
    <path class="cls-1" d="M192.4,607.43c-4.9.4-9.8.4-14.69,0-.4-4.9-.4-9.8,0-14.69,4.9-.4,9.8-.4,14.69,0,.4,4.9.4,9.8,0,14.69Z"/>
    <path class="cls-1" d="M192.51,622.23c-.4-4.9-.4-9.8,0-14.69,4.9-.4,9.8-.4,14.69,0,.4,4.9.4,9.8,0,14.69-4.9.4-9.8.4-14.69,0Z"/>
    <path class="cls-1" d="M207.31,637.03c-.4-4.9-.4-9.8,0-14.69,4.9-.4,9.8-.4,14.69,0,.52,4.41.15,8.84.21,13.26.02,1.11-.53,1.66-1.65,1.65-4.42-.07-8.85.31-13.26-.21Z"/>
    <path class="cls-1" d="M251.62,651.95c.52,4.41.15,8.84.21,13.26.02,1.11-.53,1.66-1.65,1.65-4.42-.07-8.85.31-13.26-.21-.52-4.41-.15-8.84-.21-13.26-.02-1.11.53-1.66,1.65-1.65,4.42.07,8.85-.31,13.26.21Z"/>
    <path class="cls-1" d="M236.92,696.25c-.4-4.9-.4-9.8,0-14.69,4.41-.52,8.84-.15,13.27-.21,1.12-.02,1.65.54,1.64,1.65,0,3.94,0,7.88,0,11.82,0,1.11-.53,1.67-1.64,1.65-4.42-.07-8.85.31-13.27-.21Z"/>
    <path class="cls-1" d="M281.22,681.56c.4,4.9.4,9.8,0,14.69-4.41.52-8.84.15-13.27.21-1.12.02-1.65-.54-1.64-1.65,0-3.94,0-7.88,0-11.82,0-1.11.53-1.67,1.64-1.65,4.42.07,8.85-.31,13.27.21Z"/>
  </g>
</svg>